<?xml version="1.0" encoding="utf-8"?>
<!-- Generator: Adobe Illustrator 22.0.1, SVG Export Plug-In . SVG Version: 6.00 Build 0)  -->
<svg version="1.1" xmlns="http://www.w3.org/2000/svg" xmlns:xlink="http://www.w3.org/1999/xlink" x="0px" y="0px"
	 viewBox="0 0 609.4 609.4" style="enable-background:new 0 0 609.4 609.4;" xml:space="preserve">
<style type="text/css">
	.st0{display:none;}
	.st1{display:inline;fill:#FFFFFF;}
	.st2{fill:#DA2027;stroke:#FFFFFF;stroke-width:5;stroke-miterlimit:10;}
	.st3{fill:#FFFFFF;}
	.st4{font-family:'Sylfaen';}
	.st5{font-size:1233.5422px;}
</style>
<g id="Layer_1">
	<g>
		<g class="st0">
			<path class="st1" d="M371.1,61.6c-1.5,44.5-3.8,123.5-6.9,237c-1.1,56.7-2.2,145.7-3.3,267.1H215.5c0.4-67.4-0.2-130-2-188
				c-0.4-17-1.5-63-3.3-138c-3.7,0.7-11.8,2.4-24.2,5.2c-6.5,1.5-14.3,4-23.2,7.5l-31.1-109.9c24.6-10.5,68.2-30.2,130.8-59.2
				c19.4-9.4,45-22.7,76.8-39.9L371.1,61.6z"/>
		</g>
		<g>
			<path class="st2" d="M394.2,91.8c-3.5-2-6.2-3-8.1-3c-1.5,0-2.3,0.8-2.3,2.3c0,0.5,0.2,1.4,0.6,2.7c0.5,1.7,1.7,3.4,3.5,4.9
				c1.8,1.5,4.2,3.3,7.1,5.4c2.4,1.7,3.9,2.8,4.6,3.4c3.3,2.9,5.9,5.2,7.9,7.2c2,1.9,3.7,4.2,5.4,6.8c1.6,2.6,2.4,5.2,2.4,7.9
				c0,1.8-0.5,3.7-1.4,5.6c-1.7,3.5-4.6,6.2-8.5,8.1c-3.9,1.9-8.1,2.8-12.6,2.8c-1.5,0-3-0.1-4.5-0.3c-10.2-1.7-19.7-8.5-28.3-20.4
				c-0.5-0.7-0.7-1.4-0.7-2c0-1.7,1.1-3.2,3.3-4.6c2.2-1.4,4.4-2.1,6.6-2.1c1.7,0,2.9,0.5,3.6,1.5c4.7,6.3,9.2,10.9,13.8,13.9
				c4.1,2.7,7.6,4.1,10.5,4.1c2.3,0,3.5-1,3.5-3c0-1.4-0.6-3.2-1.7-5.3c-1.1-2-2.6-3.9-4.4-5.8c-1.8-1.8-4.1-3.9-6.9-6.2l-3-2.6
				c-0.3-0.3-1.7-1.4-4.2-3.3c-2-1.5-3.8-2.9-5.2-4.2c-1.4-1.3-2.6-2.7-3.6-4.2c-1.3-2-1.9-4.1-1.9-6.3c0-3.4,1.4-6.5,4.3-9.3
				c2.9-2.8,6.2-4.8,10-5.8c2.4-0.7,4.7-1,6.9-1c4.1,0,8,0.9,11.8,2.8c3.8,1.9,7.6,4.5,11.6,7.8c0.7,0.5,1,1.2,1,1.9
				c0,1.4-1.2,2.8-3.5,4.2c-2.3,1.4-4.6,2-6.9,2c-1.5,0-2.6-0.3-3.4-1C400.2,95.4,397.7,93.8,394.2,91.8z"/>
			<path class="st2" d="M452.7,79.2c0.9,0.5,1.8,1.5,2.8,3c0.6,1,0.9,1.8,0.9,2.5c0,1.7-1.1,2.6-3.2,2.9l-3.9,0.5
				c-3.7,0.5-5.6,0.8-5.9,0.8c-1.3,12-2.3,22.5-3,31.3c-0.8,8.9-1.2,17.6-1.5,26.3c-0.1,1.1-0.5,1.8-1.3,2.4
				c-0.8,0.5-1.8,0.8-3.1,0.8c-2.3,0-4.5-0.6-6.7-1.9c-2.2-1.2-3.3-2.6-3.2-4.2c0.2-8,0.7-16.1,1.4-24.4c0.7-8.3,1.6-17.9,2.7-28.9
				l-7.1,0.9c-1.1,0.1-1.9,0-2.4-0.2c-0.6-0.2-1.1-0.6-1.6-1.3c-0.5-0.7-1.1-1.4-1.6-2.3c-0.6-0.8-0.9-1.7-0.9-2.5
				c0-0.7,0.3-1.3,0.8-1.8c0.5-0.5,1.3-0.9,2.4-1c1.7-0.2,3.6-0.5,5.7-0.8l5.7-0.8l2-19.5c0.2-2.1,1.8-3.2,4.6-3.2
				c2.3,0,4.5,0.6,6.6,1.9c2.1,1.2,3.1,2.6,3,4.2l-1.5,15.1c2.1-0.1,3.6-0.3,4.6-0.5C450.6,78.5,451.9,78.7,452.7,79.2z"/>
		</g>
	</g>
</g>
<g id="Layer_2">
	<text transform="matrix(0.583 0 0 0.583 127.6288 589.6178)" class="st3 st4 st5">1</text>
</g>
</svg>
