<?xml version="1.0" encoding="utf-8"?>
<!-- Generator: Adobe Illustrator 22.0.1, SVG Export Plug-In . SVG Version: 6.00 Build 0)  -->
<svg version="1.1" id="Capa_1" xmlns="http://www.w3.org/2000/svg" xmlns:xlink="http://www.w3.org/1999/xlink" x="0px" y="0px"
	 viewBox="0 0 401.7 401.7" style="enable-background:new 0 0 401.7 401.7;" xml:space="preserve">
<style type="text/css">
	.st0{fill:#DA1F26;}
	.st1{fill:none;stroke:#DA2027;stroke-width:6;stroke-miterlimit:10;}
</style>
<g>
	<g>
		<path class="st0" d="M316.8,157.9l-99-48.4c-8.5-4.3-23-4.3-31.6,0L84.9,157.9c-7.1,3.4-8.3,8.3-8.3,10.8s1.1,7.1,8.3,10.8l8.3,4
			V229c-5.1,2-8.8,7.1-8.8,12.8s3.7,10.8,8.5,12.8l-12.8,40.7h35.8l-12.8-40.7c5.1-2,8.5-7.1,8.5-12.8c0-6-3.7-10.8-8.8-12.8v-40.7
			l15.1,7.4v59.2c0,0.9,0.3,1.7,0.9,2.6c1.4,1.7,27.9,37.8,81.9,37.8s80.5-36.4,81.6-37.8c0.6-0.9,0.9-1.7,0.9-2.6V196l33.6-16.5
			c7.1-3.4,8.3-8.3,8.3-10.8C324.7,166.2,323.9,161.3,316.8,157.9z M274.1,253.5c-4.6,5.7-29,33-73.4,33s-68.8-27.3-73.4-33v-53.8
			l58.9,28.2c4.3,2,10,3.1,15.6,3.1c6,0,11.7-1.1,15.9-3.4l56.3-27.6V253.5z M312.8,171.6c-1.4,0.7-2.8,1.3-4.2,2
			c-1.3,0.6-2.6,1.3-3.9,1.9c-3.6,1.8-7.2,3.5-10.8,5.3c-4.6,2.2-9.1,4.4-13.7,6.7c-5,2.5-10.1,4.9-15.1,7.4
			c-5.1,2.5-10.2,5-15.3,7.5c-4.7,2.3-9.4,4.6-14.1,6.9c-3.9,1.9-7.7,3.8-11.6,5.7c-2.6,1.3-5.1,2.5-7.7,3.8
			c-0.8,0.4-1.7,0.8-2.5,1.2c-6,3.1-17.6,3.1-23.9,0l-76-36.4l87.3-10.2c2.6-0.3,4.3-2.6,4-4.8c-0.3-2.6-2.6-4.3-4.8-4L99.1,176.4
			c0,0-10.2-4.8-10.2-4.8c-0.9-0.4-3.1-1.5-3.1-2.7c0.1-1.2,2.2-2,3.1-2.4c0,0,101.3-48.6,101.3-48.6c3.1-1.4,7.4-2.3,11.7-2.3
			c4.6,0,9.1,0.9,11.9,2.3c0,0,98.9,48.3,99,48.4c1.1,0.5,3.7,1.6,2.9,3.3c-0.2,0.4-0.6,0.7-0.9,1
			C314.2,170.9,313.5,171.3,312.8,171.6z"/>
	</g>
</g>
<rect x="17.3" y="17.3" class="st1" width="367" height="367"/>
</svg>
