<?xml version="1.0" encoding="utf-8"?>
<!-- Generator: Adobe Illustrator 22.0.1, SVG Export Plug-In . SVG Version: 6.00 Build 0)  -->
<svg version="1.0" xmlns="http://www.w3.org/2000/svg" xmlns:xlink="http://www.w3.org/1999/xlink" x="0px" y="0px"
	 viewBox="0 0 968 102.5" style="enable-background:new 0 0 968 102.5;" xml:space="preserve">
<style type="text/css">
	.st0{display:none;}
	.st1{display:inline;}
	.st2{fill:#EDEDED;}
	.st3{fill:#3C3C3B;}
	.st4{fill:#FFFFFF;}
</style>
<g id="Background" class="st0">
	<g class="st1">
		<rect x="84" y="-432" class="st2" width="800" height="800"/>
		<g>
			<g>
				<path class="st3" d="M371.1,349v-0.2c-0.3,0.4-0.6,0.7-0.9,0.9c-0.3,0.2-0.6,0.4-1,0.5c-0.4,0.1-0.8,0.2-1.2,0.2
					c-0.6,0-1.1-0.1-1.6-0.4c-0.5-0.2-0.9-0.6-1.2-1c-0.4-0.4-0.6-1-0.8-1.6c-0.2-0.6-0.3-1.2-0.3-1.9c0-1.5,0.4-2.6,1.1-3.4
					c0.7-0.8,1.7-1.2,2.8-1.2c0.7,0,1.3,0.1,1.7,0.3c0.5,0.2,0.9,0.6,1.4,1.1v-3.5c0-0.5,0.1-0.9,0.3-1.1c0.2-0.2,0.5-0.4,0.8-0.4
					c0.4,0,0.6,0.1,0.8,0.3c0.2,0.2,0.3,0.6,0.3,1V349c0,0.4-0.1,0.8-0.3,1c-0.2,0.2-0.5,0.3-0.8,0.3c-0.3,0-0.6-0.1-0.8-0.4
					C371.2,349.8,371.1,349.5,371.1,349z M366.5,345.6c0,0.6,0.1,1.2,0.3,1.6c0.2,0.4,0.5,0.8,0.8,1c0.3,0.2,0.7,0.3,1.1,0.3
					c0.4,0,0.8-0.1,1.1-0.3c0.3-0.2,0.6-0.5,0.8-1c0.2-0.4,0.3-1,0.3-1.7c0-0.6-0.1-1.2-0.3-1.6c-0.2-0.5-0.5-0.8-0.8-1
					c-0.3-0.2-0.7-0.4-1.1-0.4c-0.4,0-0.8,0.1-1.2,0.4c-0.3,0.2-0.6,0.6-0.8,1.1C366.6,344.4,366.5,345,366.5,345.6z"/>
				<path class="st3" d="M382.3,346.2h-4.6c0,0.5,0.1,1,0.3,1.4c0.2,0.4,0.5,0.7,0.8,0.9c0.3,0.2,0.7,0.3,1.2,0.3
					c0.3,0,0.5,0,0.8-0.1c0.2-0.1,0.5-0.2,0.7-0.3c0.2-0.1,0.4-0.3,0.6-0.5c0.2-0.2,0.4-0.4,0.7-0.7c0.1-0.1,0.3-0.2,0.5-0.2
					c0.2,0,0.4,0.1,0.6,0.2c0.1,0.1,0.2,0.3,0.2,0.6c0,0.2-0.1,0.5-0.3,0.7c-0.2,0.3-0.4,0.6-0.8,0.8c-0.3,0.3-0.8,0.5-1.3,0.7
					c-0.5,0.2-1.1,0.3-1.8,0.3c-1.5,0-2.7-0.4-3.5-1.3c-0.8-0.9-1.3-2-1.3-3.5c0-0.7,0.1-1.3,0.3-1.9c0.2-0.6,0.5-1.1,0.9-1.5
					c0.4-0.4,0.9-0.8,1.5-1c0.6-0.2,1.2-0.3,1.9-0.3c0.9,0,1.7,0.2,2.4,0.6c0.7,0.4,1.2,0.9,1.5,1.5c0.3,0.6,0.5,1.2,0.5,1.9
					c0,0.6-0.2,1-0.5,1.2C383.4,346.1,382.9,346.2,382.3,346.2z M377.7,344.8h4.3c-0.1-0.8-0.3-1.4-0.7-1.8
					c-0.4-0.4-0.9-0.6-1.5-0.6c-0.6,0-1.1,0.2-1.4,0.6C378,343.4,377.8,344,377.7,344.8z"/>
				<path class="st3" d="M393.8,347.3c0,0.6-0.2,1.2-0.5,1.7c-0.3,0.5-0.8,0.8-1.4,1.1c-0.6,0.2-1.4,0.4-2.3,0.4
					c-0.8,0-1.6-0.1-2.2-0.4c-0.6-0.3-1-0.6-1.3-1c-0.3-0.4-0.4-0.8-0.4-1.2c0-0.3,0.1-0.5,0.3-0.7c0.2-0.2,0.4-0.3,0.7-0.3
					c0.2,0,0.4,0.1,0.6,0.2c0.1,0.1,0.3,0.3,0.4,0.5c0.2,0.4,0.5,0.7,0.9,0.9c0.3,0.2,0.8,0.3,1.4,0.3c0.5,0,0.9-0.1,1.2-0.3
					c0.3-0.2,0.5-0.4,0.5-0.7c0-0.4-0.2-0.7-0.5-0.9c-0.3-0.2-0.8-0.4-1.5-0.5c-0.8-0.2-1.5-0.4-2-0.6c-0.5-0.2-0.9-0.5-1.2-0.9
					c-0.3-0.4-0.5-0.8-0.5-1.3c0-0.5,0.1-0.9,0.4-1.3c0.3-0.4,0.7-0.8,1.2-1c0.5-0.3,1.2-0.4,2-0.4c0.6,0,1.2,0.1,1.6,0.2
					c0.5,0.1,0.9,0.3,1.2,0.5c0.3,0.2,0.6,0.4,0.7,0.7c0.2,0.3,0.3,0.5,0.3,0.8c0,0.3-0.1,0.5-0.3,0.7c-0.2,0.2-0.4,0.3-0.8,0.3
					c-0.2,0-0.4-0.1-0.6-0.2c-0.2-0.1-0.4-0.3-0.6-0.6c-0.2-0.2-0.4-0.4-0.6-0.6c-0.2-0.1-0.6-0.2-1-0.2c-0.4,0-0.8,0.1-1.1,0.3
					c-0.3,0.2-0.4,0.4-0.4,0.7c0,0.2,0.1,0.5,0.3,0.6c0.2,0.2,0.5,0.3,0.8,0.4c0.4,0.1,0.8,0.2,1.4,0.4c0.7,0.2,1.3,0.4,1.8,0.6
					c0.5,0.2,0.8,0.5,1.1,0.9C393.7,346.5,393.8,346.9,393.8,347.3z"/>
				<path class="st3" d="M397,339.7c-0.3,0-0.6-0.1-0.8-0.3c-0.2-0.2-0.4-0.5-0.4-0.9c0-0.3,0.1-0.6,0.4-0.8
					c0.2-0.2,0.5-0.3,0.8-0.3c0.3,0,0.6,0.1,0.8,0.3c0.2,0.2,0.4,0.5,0.4,0.9c0,0.4-0.1,0.6-0.3,0.8
					C397.6,339.6,397.3,339.7,397,339.7z M398.2,342.1v6.8c0,0.5-0.1,0.8-0.3,1.1c-0.2,0.2-0.5,0.4-0.9,0.4c-0.3,0-0.6-0.1-0.8-0.4
					c-0.2-0.2-0.3-0.6-0.3-1.1v-6.7c0-0.5,0.1-0.8,0.3-1.1c0.2-0.2,0.5-0.4,0.8-0.4c0.3,0,0.6,0.1,0.9,0.4
					C398.1,341.4,398.2,341.7,398.2,342.1z"/>
				<path class="st3" d="M409.3,342.5v6.8c0,0.8-0.1,1.5-0.3,2c-0.2,0.6-0.4,1-0.8,1.4c-0.4,0.4-0.9,0.6-1.4,0.8
					c-0.6,0.2-1.3,0.3-2.2,0.3c-0.8,0-1.5-0.1-2.2-0.3c-0.6-0.2-1.1-0.5-1.5-0.9c-0.3-0.4-0.5-0.7-0.5-1.1c0-0.3,0.1-0.5,0.3-0.7
					c0.2-0.2,0.4-0.3,0.7-0.3c0.3,0,0.6,0.2,0.9,0.5c0.1,0.2,0.3,0.3,0.4,0.5c0.1,0.2,0.3,0.3,0.5,0.4c0.2,0.1,0.4,0.2,0.6,0.2
					c0.2,0.1,0.5,0.1,0.8,0.1c0.6,0,1.1-0.1,1.4-0.3c0.3-0.2,0.6-0.4,0.7-0.7c0.1-0.3,0.2-0.6,0.2-1c0-0.3,0-0.9,0.1-1.7
					c-0.4,0.5-0.8,0.9-1.3,1.2c-0.5,0.3-1,0.4-1.7,0.4c-0.8,0-1.5-0.2-2.1-0.6c-0.6-0.4-1-1-1.4-1.7c-0.3-0.7-0.5-1.6-0.5-2.5
					c0-0.7,0.1-1.3,0.3-1.9c0.2-0.6,0.5-1.1,0.8-1.4c0.4-0.4,0.8-0.7,1.2-0.9c0.5-0.2,1-0.3,1.5-0.3c0.7,0,1.2,0.1,1.7,0.4
					c0.5,0.3,0.9,0.7,1.4,1.2v-0.3c0-0.4,0.1-0.7,0.3-1c0.2-0.2,0.5-0.3,0.8-0.3c0.5,0,0.8,0.1,0.9,0.4
					C409.2,341.6,409.3,342,409.3,342.5z M402.4,345.5c0,1,0.2,1.7,0.6,2.2c0.4,0.5,1,0.7,1.6,0.7c0.4,0,0.8-0.1,1.1-0.3
					c0.3-0.2,0.6-0.5,0.9-1c0.2-0.4,0.3-0.9,0.3-1.5c0-1-0.2-1.7-0.6-2.2c-0.4-0.5-1-0.8-1.7-0.8c-0.7,0-1.2,0.3-1.6,0.8
					C402.6,343.9,402.4,344.6,402.4,345.5z"/>
				<path class="st3" d="M413.8,342.1v0.3c0.4-0.5,0.9-0.9,1.4-1.2c0.5-0.3,1.1-0.4,1.7-0.4c0.6,0,1.2,0.1,1.7,0.4
					c0.5,0.3,0.9,0.7,1.1,1.1c0.2,0.3,0.3,0.6,0.3,0.9c0,0.3,0.1,0.8,0.1,1.3v4.4c0,0.5-0.1,0.8-0.3,1.1c-0.2,0.2-0.5,0.4-0.8,0.4
					c-0.4,0-0.6-0.1-0.9-0.4c-0.2-0.2-0.3-0.6-0.3-1.1V345c0-0.8-0.1-1.4-0.3-1.8c-0.2-0.4-0.6-0.6-1.3-0.6c-0.4,0-0.8,0.1-1.1,0.4
					c-0.3,0.2-0.6,0.6-0.8,1c-0.1,0.4-0.2,1-0.2,2v3c0,0.5-0.1,0.8-0.3,1.1c-0.2,0.2-0.5,0.4-0.9,0.4c-0.3,0-0.6-0.1-0.8-0.4
					c-0.2-0.2-0.3-0.6-0.3-1.1v-6.8c0-0.4,0.1-0.8,0.3-1c0.2-0.2,0.5-0.3,0.8-0.3c0.2,0,0.4,0,0.6,0.1c0.2,0.1,0.3,0.2,0.4,0.4
					C413.7,341.6,413.8,341.8,413.8,342.1z"/>
				<path class="st3" d="M428.9,346.2h-4.6c0,0.5,0.1,1,0.3,1.4c0.2,0.4,0.5,0.7,0.8,0.9c0.3,0.2,0.7,0.3,1.2,0.3
					c0.3,0,0.5,0,0.8-0.1c0.2-0.1,0.5-0.2,0.7-0.3c0.2-0.1,0.4-0.3,0.6-0.5c0.2-0.2,0.4-0.4,0.7-0.7c0.1-0.1,0.3-0.2,0.5-0.2
					c0.2,0,0.4,0.1,0.6,0.2c0.2,0.1,0.2,0.3,0.2,0.6c0,0.2-0.1,0.5-0.2,0.7c-0.2,0.3-0.4,0.6-0.8,0.8c-0.3,0.3-0.8,0.5-1.3,0.7
					c-0.5,0.2-1.1,0.3-1.8,0.3c-1.5,0-2.7-0.4-3.5-1.3c-0.8-0.9-1.3-2-1.3-3.5c0-0.7,0.1-1.3,0.3-1.9c0.2-0.6,0.5-1.1,0.9-1.5
					c0.4-0.4,0.9-0.8,1.5-1c0.6-0.2,1.2-0.3,1.9-0.3c0.9,0,1.7,0.2,2.4,0.6c0.7,0.4,1.2,0.9,1.5,1.5c0.3,0.6,0.5,1.2,0.5,1.9
					c0,0.6-0.2,1-0.5,1.2C430,346.1,429.5,346.2,428.9,346.2z M424.3,344.8h4.3c-0.1-0.8-0.3-1.4-0.7-1.8c-0.4-0.4-0.9-0.6-1.5-0.6
					c-0.6,0-1.1,0.2-1.4,0.6C424.6,343.4,424.4,344,424.3,344.8z"/>
				<path class="st3" d="M439.3,349v-0.2c-0.3,0.4-0.6,0.7-0.9,0.9c-0.3,0.2-0.6,0.4-1,0.5c-0.4,0.1-0.8,0.2-1.2,0.2
					c-0.6,0-1.1-0.1-1.6-0.4c-0.5-0.2-0.9-0.6-1.2-1c-0.3-0.4-0.6-1-0.8-1.6c-0.2-0.6-0.3-1.2-0.3-1.9c0-1.5,0.4-2.6,1.1-3.4
					c0.7-0.8,1.7-1.2,2.8-1.2c0.7,0,1.2,0.1,1.7,0.3c0.5,0.2,0.9,0.6,1.4,1.1v-3.5c0-0.5,0.1-0.9,0.3-1.1c0.2-0.2,0.5-0.4,0.8-0.4
					c0.4,0,0.6,0.1,0.8,0.3c0.2,0.2,0.3,0.6,0.3,1V349c0,0.4-0.1,0.8-0.3,1c-0.2,0.2-0.5,0.3-0.8,0.3c-0.3,0-0.6-0.1-0.8-0.4
					C439.4,349.8,439.3,349.5,439.3,349z M434.7,345.6c0,0.6,0.1,1.2,0.3,1.6c0.2,0.4,0.5,0.8,0.8,1c0.3,0.2,0.7,0.3,1.1,0.3
					c0.4,0,0.8-0.1,1.1-0.3c0.3-0.2,0.6-0.5,0.8-1c0.2-0.4,0.3-1,0.3-1.7c0-0.6-0.1-1.2-0.3-1.6c-0.2-0.5-0.5-0.8-0.8-1
					c-0.3-0.2-0.7-0.4-1.1-0.4c-0.4,0-0.8,0.1-1.2,0.4c-0.3,0.2-0.6,0.6-0.8,1.1C434.7,344.4,434.7,345,434.7,345.6z"/>
				<path class="st3" d="M450.5,338.7v3.6c0.4-0.5,0.9-0.8,1.4-1.1c0.5-0.2,1-0.4,1.7-0.4c0.8,0,1.5,0.2,2.1,0.6
					c0.6,0.4,1,0.9,1.4,1.6c0.3,0.7,0.5,1.5,0.5,2.5c0,0.7-0.1,1.4-0.3,2c-0.2,0.6-0.4,1.1-0.8,1.5c-0.3,0.4-0.8,0.8-1.3,1
					c-0.5,0.2-1,0.4-1.6,0.4c-0.4,0-0.7,0-1-0.1c-0.3-0.1-0.6-0.2-0.8-0.3c-0.2-0.1-0.4-0.3-0.6-0.4c-0.2-0.1-0.4-0.4-0.6-0.7v0.2
					c0,0.4-0.1,0.8-0.3,1c-0.2,0.2-0.5,0.3-0.8,0.3c-0.3,0-0.6-0.1-0.8-0.3c-0.2-0.2-0.3-0.6-0.3-1v-10.3c0-0.5,0.1-0.8,0.3-1.1
					c0.2-0.2,0.5-0.4,0.8-0.4c0.4,0,0.6,0.1,0.8,0.4C450.4,337.9,450.5,338.2,450.5,338.7z M450.6,345.7c0,0.9,0.2,1.7,0.6,2.2
					c0.4,0.5,1,0.8,1.7,0.8c0.6,0,1.1-0.3,1.5-0.8c0.4-0.5,0.6-1.3,0.6-2.2c0-0.6-0.1-1.2-0.3-1.6c-0.2-0.5-0.4-0.8-0.8-1
					c-0.3-0.2-0.7-0.4-1.1-0.4c-0.4,0-0.8,0.1-1.2,0.4c-0.4,0.2-0.6,0.6-0.8,1.1C450.7,344.5,450.6,345,450.6,345.7z"/>
				<path class="st3" d="M461.3,350.7l0.2-0.5l-2.9-7.3c-0.2-0.4-0.3-0.7-0.3-0.9c0-0.2,0.1-0.4,0.2-0.6c0.1-0.2,0.2-0.3,0.4-0.4
					c0.2-0.1,0.4-0.2,0.6-0.2c0.3,0,0.6,0.1,0.8,0.3c0.2,0.2,0.3,0.5,0.5,0.9l2,5.8l1.9-5.4c0.1-0.4,0.3-0.8,0.4-1
					c0.1-0.2,0.2-0.4,0.4-0.5c0.1-0.1,0.3-0.1,0.6-0.1c0.2,0,0.3,0,0.5,0.1c0.2,0.1,0.3,0.2,0.4,0.4c0.1,0.2,0.1,0.3,0.1,0.5
					c0,0.1-0.1,0.3-0.1,0.5c-0.1,0.2-0.1,0.4-0.2,0.6l-3.1,8c-0.3,0.7-0.5,1.3-0.8,1.7c-0.3,0.4-0.6,0.7-1,0.9
					c-0.4,0.2-1,0.3-1.7,0.3c-0.7,0-1.2-0.1-1.6-0.2c-0.3-0.1-0.5-0.4-0.5-0.8c0-0.3,0.1-0.5,0.2-0.6c0.2-0.1,0.4-0.2,0.7-0.2
					c0.1,0,0.2,0,0.4,0.1c0.1,0,0.3,0.1,0.4,0.1c0.3,0,0.5,0,0.6-0.1c0.2-0.1,0.3-0.2,0.4-0.4C461,351.4,461.1,351.1,461.3,350.7z"
					/>
			</g>
			<g>
				<path class="st3" d="M504.9,341h0.6v-0.7c0-0.7,0.1-1.3,0.3-1.8c0.2-0.4,0.5-0.8,1-0.9c0.4-0.2,1.1-0.3,1.8-0.3
					c1.4,0,2.1,0.3,2.1,1c0,0.2-0.1,0.4-0.2,0.6c-0.1,0.2-0.3,0.2-0.5,0.2c-0.1,0-0.2,0-0.5-0.1c-0.2,0-0.4,0-0.6,0
					c-0.4,0-0.7,0.1-0.8,0.4c-0.1,0.3-0.2,0.6-0.2,1.1v0.6h0.6c0.9,0,1.3,0.3,1.3,0.8c0,0.4-0.1,0.6-0.4,0.7c-0.2,0.1-0.6,0.2-1,0.2
					h-0.6v6.2c0,0.5-0.1,0.8-0.3,1.1c-0.2,0.2-0.5,0.4-0.9,0.4c-0.3,0-0.6-0.1-0.8-0.4c-0.2-0.2-0.3-0.6-0.3-1.1v-6.2h-0.6
					c-0.4,0-0.6-0.1-0.8-0.2c-0.2-0.2-0.3-0.4-0.3-0.6C503.7,341.3,504.1,341,504.9,341z"/>
				<path class="st3" d="M513.3,347v2c0,0.5-0.1,0.8-0.3,1.1c-0.2,0.2-0.5,0.4-0.9,0.4c-0.3,0-0.6-0.1-0.8-0.4
					c-0.2-0.2-0.3-0.6-0.3-1.1v-6.6c0-1.1,0.4-1.6,1.1-1.6c0.4,0,0.7,0.1,0.8,0.4c0.2,0.2,0.3,0.6,0.3,1.1c0.3-0.5,0.6-0.9,0.9-1.1
					c0.3-0.2,0.7-0.4,1.2-0.4c0.5,0,1,0.1,1.4,0.4c0.5,0.2,0.7,0.6,0.7,1c0,0.3-0.1,0.5-0.3,0.7c-0.2,0.2-0.4,0.3-0.6,0.3
					c-0.1,0-0.3-0.1-0.6-0.2c-0.3-0.1-0.6-0.2-0.9-0.2c-0.3,0-0.6,0.1-0.8,0.3c-0.2,0.2-0.4,0.5-0.5,0.8c-0.1,0.4-0.2,0.8-0.3,1.3
					C513.3,345.7,513.3,346.3,513.3,347z"/>
				<path class="st3" d="M524.9,346.2h-4.6c0,0.5,0.1,1,0.3,1.4c0.2,0.4,0.5,0.7,0.8,0.9c0.4,0.2,0.7,0.3,1.2,0.3
					c0.3,0,0.5,0,0.8-0.1c0.2-0.1,0.5-0.2,0.7-0.3c0.2-0.1,0.4-0.3,0.6-0.5c0.2-0.2,0.4-0.4,0.7-0.7c0.1-0.1,0.3-0.2,0.5-0.2
					c0.2,0,0.4,0.1,0.6,0.2c0.2,0.1,0.2,0.3,0.2,0.6c0,0.2-0.1,0.5-0.3,0.7c-0.2,0.3-0.4,0.6-0.8,0.8c-0.3,0.3-0.8,0.5-1.3,0.7
					c-0.5,0.2-1.1,0.3-1.8,0.3c-1.5,0-2.7-0.4-3.5-1.3c-0.8-0.9-1.3-2-1.3-3.5c0-0.7,0.1-1.3,0.3-1.9c0.2-0.6,0.5-1.1,0.9-1.5
					c0.4-0.4,0.9-0.8,1.5-1c0.6-0.2,1.2-0.3,1.9-0.3c0.9,0,1.7,0.2,2.4,0.6c0.7,0.4,1.2,0.9,1.5,1.5c0.3,0.6,0.5,1.2,0.5,1.9
					c0,0.6-0.2,1-0.5,1.2C525.9,346.1,525.5,346.2,524.9,346.2z M520.2,344.8h4.3c-0.1-0.8-0.3-1.4-0.7-1.8
					c-0.4-0.4-0.9-0.6-1.5-0.6c-0.6,0-1.1,0.2-1.4,0.6C520.6,343.4,520.3,344,520.2,344.8z"/>
				<path class="st3" d="M535.4,346.2h-4.6c0,0.5,0.1,1,0.3,1.4c0.2,0.4,0.5,0.7,0.8,0.9c0.3,0.2,0.7,0.3,1.2,0.3
					c0.3,0,0.5,0,0.8-0.1c0.2-0.1,0.5-0.2,0.7-0.3c0.2-0.1,0.4-0.3,0.6-0.5c0.2-0.2,0.4-0.4,0.7-0.7c0.1-0.1,0.3-0.2,0.5-0.2
					c0.2,0,0.4,0.1,0.6,0.2c0.2,0.1,0.2,0.3,0.2,0.6c0,0.2-0.1,0.5-0.2,0.7c-0.2,0.3-0.4,0.6-0.8,0.8c-0.3,0.3-0.8,0.5-1.3,0.7
					c-0.5,0.2-1.1,0.3-1.8,0.3c-1.5,0-2.7-0.4-3.5-1.3c-0.8-0.9-1.3-2-1.3-3.5c0-0.7,0.1-1.3,0.3-1.9c0.2-0.6,0.5-1.1,0.9-1.5
					c0.4-0.4,0.9-0.8,1.5-1c0.6-0.2,1.2-0.3,1.9-0.3c0.9,0,1.7,0.2,2.4,0.6c0.7,0.4,1.1,0.9,1.5,1.5c0.3,0.6,0.5,1.2,0.5,1.9
					c0,0.6-0.2,1-0.5,1.2C536.5,346.1,536,346.2,535.4,346.2z M530.8,344.8h4.3c-0.1-0.8-0.3-1.4-0.7-1.8c-0.4-0.4-0.9-0.6-1.5-0.6
					c-0.6,0-1.1,0.2-1.4,0.6C531.1,343.4,530.8,344,530.8,344.8z"/>
				<path class="st3" d="M541.2,342.1v0.3c0.4-0.5,0.9-0.9,1.4-1.2c0.5-0.3,1-0.4,1.6-0.4c0.7,0,1.4,0.2,2,0.6
					c0.6,0.4,1.1,0.9,1.4,1.6c0.4,0.7,0.5,1.6,0.5,2.6c0,0.7-0.1,1.4-0.3,2c-0.2,0.6-0.5,1.1-0.8,1.5c-0.4,0.4-0.8,0.7-1.3,1
					c-0.5,0.2-1,0.3-1.6,0.3c-0.7,0-1.2-0.1-1.7-0.4c-0.5-0.3-0.9-0.7-1.3-1.2v3.5c0,1-0.4,1.6-1.1,1.6c-0.4,0-0.7-0.1-0.9-0.4
					c-0.1-0.3-0.2-0.7-0.2-1.2v-10.2c0-0.4,0.1-0.8,0.3-1c0.2-0.2,0.5-0.3,0.8-0.3c0.3,0,0.6,0.1,0.8,0.3
					C541.1,341.4,541.2,341.7,541.2,342.1z M545.8,345.6c0-0.6-0.1-1.2-0.3-1.6c-0.2-0.4-0.5-0.8-0.8-1c-0.3-0.2-0.7-0.4-1.1-0.4
					c-0.6,0-1.2,0.3-1.6,0.8c-0.4,0.5-0.7,1.3-0.7,2.3c0,0.9,0.2,1.7,0.7,2.2c0.4,0.5,1,0.8,1.6,0.8c0.4,0,0.8-0.1,1.1-0.3
					c0.3-0.2,0.6-0.6,0.8-1C545.7,346.8,545.8,346.2,545.8,345.6z"/>
				<path class="st3" d="M551.3,339.7c-0.3,0-0.6-0.1-0.8-0.3c-0.2-0.2-0.3-0.5-0.3-0.9c0-0.3,0.1-0.6,0.4-0.8
					c0.2-0.2,0.5-0.3,0.8-0.3c0.3,0,0.6,0.1,0.8,0.3c0.2,0.2,0.4,0.5,0.4,0.9c0,0.4-0.1,0.6-0.3,0.8
					C551.9,339.6,551.6,339.7,551.3,339.7z M552.5,342.1v6.8c0,0.5-0.1,0.8-0.3,1.1c-0.2,0.2-0.5,0.4-0.9,0.4
					c-0.3,0-0.6-0.1-0.8-0.4c-0.2-0.2-0.3-0.6-0.3-1.1v-6.7c0-0.5,0.1-0.8,0.3-1.1c0.2-0.2,0.5-0.4,0.8-0.4c0.3,0,0.6,0.1,0.9,0.4
					C552.4,341.4,552.5,341.7,552.5,342.1z"/>
				<path class="st3" d="M560.8,349.3l-2.1-3.4l-1.3,1.2v1.9c0,0.5-0.1,0.8-0.4,1c-0.2,0.2-0.5,0.4-0.8,0.4c-0.4,0-0.6-0.1-0.9-0.4
					c-0.2-0.2-0.3-0.6-0.3-1.1v-10.1c0-0.5,0.1-0.9,0.3-1.2c0.2-0.3,0.5-0.4,0.9-0.4c0.4,0,0.7,0.1,0.9,0.4c0.2,0.2,0.3,0.6,0.3,1.1
					v5.7l2.6-2.8c0.3-0.3,0.6-0.6,0.8-0.7c0.2-0.1,0.4-0.2,0.6-0.2c0.3,0,0.5,0.1,0.7,0.3c0.2,0.2,0.3,0.4,0.3,0.7
					c0,0.3-0.3,0.8-1,1.4l-1.2,1.1l2.4,3.8c0.2,0.3,0.3,0.5,0.4,0.6c0.1,0.1,0.1,0.3,0.1,0.4c0,0.4-0.1,0.7-0.3,0.9
					c-0.2,0.2-0.5,0.3-0.8,0.3c-0.3,0-0.5-0.1-0.7-0.2C561.2,350,561,349.7,560.8,349.3z"/>
				<path class="st3" d="M566.6,350.4c-0.4,0-0.7-0.1-0.9-0.3c-0.3-0.2-0.4-0.6-0.4-1c0-0.4,0.1-0.7,0.4-0.9
					c0.3-0.3,0.6-0.4,0.9-0.4c0.4,0,0.7,0.1,0.9,0.4c0.3,0.3,0.4,0.6,0.4,0.9c0,0.4-0.1,0.7-0.4,1
					C567.2,350.3,566.9,350.4,566.6,350.4z"/>
				<path class="st3" d="M579,347.5c0,0.3-0.1,0.6-0.3,0.9c-0.2,0.3-0.4,0.7-0.8,1c-0.4,0.3-0.8,0.5-1.4,0.7
					c-0.5,0.2-1.2,0.3-1.9,0.3c-1.5,0-2.6-0.4-3.4-1.3c-0.8-0.8-1.2-2-1.2-3.4c0-1,0.2-1.8,0.6-2.6c0.4-0.7,0.9-1.3,1.6-1.7
					c0.7-0.4,1.6-0.6,2.5-0.6c0.6,0,1.2,0.1,1.7,0.3c0.5,0.2,0.9,0.4,1.3,0.7c0.4,0.3,0.6,0.6,0.8,0.9c0.2,0.3,0.3,0.6,0.3,0.9
					c0,0.3-0.1,0.5-0.3,0.7c-0.2,0.2-0.5,0.3-0.8,0.3c-0.2,0-0.4,0-0.5-0.2c-0.1-0.1-0.3-0.3-0.4-0.5c-0.3-0.4-0.6-0.8-0.9-1
					c-0.3-0.2-0.7-0.3-1.2-0.3c-0.7,0-1.3,0.3-1.7,0.8c-0.4,0.5-0.6,1.3-0.6,2.2c0,0.4,0.1,0.9,0.2,1.2c0.1,0.4,0.3,0.7,0.5,0.9
					c0.2,0.3,0.5,0.5,0.8,0.6c0.3,0.1,0.6,0.2,1,0.2c0.5,0,0.9-0.1,1.2-0.3c0.3-0.2,0.6-0.6,0.9-1c0.1-0.3,0.3-0.5,0.5-0.6
					c0.2-0.2,0.4-0.2,0.6-0.2c0.3,0,0.5,0.1,0.7,0.3C578.9,347,579,347.2,579,347.5z"/>
				<path class="st3" d="M589.9,345.6c0,0.7-0.1,1.3-0.3,1.9c-0.2,0.6-0.5,1.1-1,1.5c-0.4,0.4-0.9,0.8-1.5,1
					c-0.6,0.2-1.2,0.3-1.9,0.3c-0.7,0-1.4-0.1-1.9-0.3c-0.6-0.2-1.1-0.6-1.5-1c-0.4-0.4-0.7-0.9-0.9-1.5c-0.2-0.6-0.3-1.2-0.3-1.9
					c0-0.7,0.1-1.4,0.3-2c0.2-0.6,0.5-1.1,0.9-1.5c0.4-0.4,0.9-0.7,1.5-1c0.6-0.2,1.2-0.3,1.9-0.3c0.7,0,1.4,0.1,1.9,0.3
					c0.6,0.2,1.1,0.6,1.5,1c0.4,0.4,0.7,0.9,0.9,1.5C589.8,344.2,589.9,344.9,589.9,345.6z M587.5,345.6c0-1-0.2-1.7-0.6-2.2
					c-0.4-0.5-1-0.8-1.7-0.8c-0.5,0-0.9,0.1-1.2,0.4c-0.3,0.2-0.6,0.6-0.8,1.1c-0.2,0.5-0.3,1-0.3,1.6c0,0.6,0.1,1.2,0.3,1.6
					c0.2,0.5,0.5,0.8,0.8,1.1c0.3,0.2,0.8,0.4,1.2,0.4c0.7,0,1.3-0.3,1.7-0.8C587.3,347.3,587.5,346.5,587.5,345.6z"/>
				<path class="st3" d="M599.6,345.8v3.1c0,0.5-0.1,0.9-0.3,1.1c-0.2,0.2-0.5,0.4-0.9,0.4c-0.4,0-0.6-0.1-0.9-0.4
					c-0.2-0.2-0.3-0.6-0.3-1.1v-3.8c0-0.6,0-1-0.1-1.4c0-0.3-0.1-0.6-0.3-0.8c-0.2-0.2-0.5-0.3-0.8-0.3c-0.8,0-1.3,0.3-1.5,0.8
					c-0.2,0.5-0.4,1.3-0.4,2.3v3.2c0,0.5-0.1,0.9-0.3,1.1c-0.2,0.3-0.5,0.4-0.9,0.4c-0.4,0-0.6-0.1-0.9-0.4
					c-0.2-0.2-0.3-0.6-0.3-1.1v-6.7c0-0.4,0.1-0.8,0.3-1c0.2-0.2,0.5-0.3,0.8-0.3c0.3,0,0.6,0.1,0.8,0.3c0.2,0.2,0.3,0.5,0.3,0.9
					v0.2c0.4-0.5,0.8-0.8,1.3-1.1c0.5-0.2,1-0.3,1.6-0.3c0.6,0,1.1,0.1,1.5,0.4c0.4,0.2,0.8,0.6,1.1,1.1c0.4-0.5,0.8-0.8,1.3-1.1
					c0.5-0.2,1-0.3,1.5-0.3c0.6,0,1.2,0.1,1.7,0.4c0.5,0.3,0.8,0.6,1,1.1c0.2,0.4,0.3,1.1,0.3,2v4.6c0,0.5-0.1,0.9-0.3,1.1
					c-0.2,0.2-0.5,0.4-0.9,0.4c-0.4,0-0.7-0.1-0.9-0.4c-0.2-0.2-0.3-0.6-0.3-1.1v-4c0-0.5,0-0.9-0.1-1.2c0-0.3-0.2-0.6-0.4-0.8
					c-0.2-0.2-0.5-0.3-0.9-0.3c-0.3,0-0.6,0.1-0.9,0.3c-0.3,0.2-0.5,0.4-0.7,0.7C599.7,344.1,599.6,344.8,599.6,345.8z"/>
			</g>
			<g>
				<path class="st3" d="M486.3,334.7c-0.1-0.2-0.1-0.3-0.2-0.5c0.8-0.1,1.3-1,0.9-1.7c-0.4-0.8-1.6-0.9-2-0.2
					c-0.5,0.6-0.1,1.7,0.7,1.9c0,0.2,0.1,0.3,0.1,0.5c-1.2,0.1-2.4,0.3-3.4,1c0.1,0.3,0.2,0.6,0.3,0.9c2-0.9,4.3-0.7,6.4-0.5
					c0.1-0.3,0.1-0.6,0.2-0.8C488.4,334.9,487.4,334.7,486.3,334.7z"/>
				<path class="st3" d="M498.3,338c-0.3,0.2-0.4,0.5-0.4,0.9c-0.4,0.3-0.2,0.9-0.2,1.3c-0.1,0.2-0.4,0.3-0.6,0.4
					c-0.3-0.4-0.6-0.8-0.9-1.2l0,0c-0.4-0.4-0.8-0.7-1.3-1c-0.4,0.4-0.8,0.8-1.1,1.2c0.7,0.8,1.4,1.6,1.9,2.5c0.4,0.7,0.7,1.4,1,2.1
					c0.6-0.3,1.2-0.6,1.8-0.9c-0.3-0.7-0.7-1.4-1.1-2.1c0.3-0.1,0.6-0.3,0.7-0.6c0-0.4-0.1-0.8,0.2-1.1c0.5,0.3,1.2,0,1.2-0.6
					C499.5,338.1,498.8,337.6,498.3,338z"/>
				<path class="st3" d="M495,342.3c-0.8-1.3-1.6-2.6-2.8-3.6c-1.3-1.2-3-1.9-4.8-1.9c-2.3,0-4.5,0.3-6.6,1.2
					c-2,0.9-3.7,2.4-4.5,4.4c-0.8,1.8-0.8,3.8-0.4,5.7c2.1,0.5,4.2,1,6.3,1.1c2.1,0.1,4.2,0.1,6.3-0.2c2.9-0.4,5.7-1.3,8.2-2.8
					C496.7,346.3,496.4,344.4,495,342.3z M484.9,344.9c-0.4,0.6-0.9,1-1.6,1.3c-1.2,0.5-2.7,0.1-3.6-0.8c-0.6-0.7-1-1.6-0.9-2.5
					c0-1.1,0.7-2.2,1.7-2.7c0.8-0.4,1.7-0.5,2.5-0.3c0.3,0.1,0.7,0.3,1,0.5c0.6,0.4,1.1,1.1,1.3,1.8
					C485.6,343,485.4,344.1,484.9,344.9z M493.6,342.8c-0.1,1-1.1,1.8-2.1,1.7c-0.6,0-1.1-0.2-1.5-0.6c-0.3-0.3-0.5-0.8-0.5-1.2
					c-0.1-1,0.6-2,1.5-2.2c0.4-0.1,0.9-0.1,1.3,0C493.2,340.8,493.8,341.9,493.6,342.8z"/>
				<path class="st3" d="M476.4,339.4c-0.8,0.5-1.5,1.2-2.1,2c-0.2-0.3-0.2-0.7-0.4-1c-0.1-0.2-0.3-0.1-0.5-0.1
					c-0.2,0-0.4,0-0.7-0.1c0.2-0.3,0.2-0.9-0.2-1.1c-0.4-0.3-1,0-1.1,0.4c-0.2,0.5,0.4,1.1,0.9,0.9c0.3,0.4,0.8,0.3,1.2,0.4
					c0.2,0.3,0.3,0.7,0.6,1c-0.5,0.9-0.7,1.9-0.7,2.9c0.6,0.2,1.2,0.5,1.7,0.7c0-0.6,0.1-1.3,0.2-1.9c0.2-1.4,1-2.5,1.9-3.5
					C476.9,339.9,476.6,339.7,476.4,339.4z"/>
				<path class="st3" d="M489.9,349.6c-2.1,0.5-4.3,0.6-6.5,0.5c-1.5-0.1-3-0.2-4.4-0.5c-1-0.2-2-0.5-3-0.8c0.2,1.3,0.7,2.5,1.4,3.6
					c0.9,1.2,2,2.4,3.5,2.8c1.1,0.3,2.5,0.7,4.8,0.7c1.9,0,3.8-0.3,5.5-1c1.1-0.5,2.1-1.1,3-1.9c0.8-0.7,1.4-1.6,1.8-2.6
					c0.4-0.9,0.8-2.5,0.7-3.4C494.6,348.2,492.3,349.2,489.9,349.6z"/>
			</g>
		</g>
	</g>
</g>
<g id="Objects">
	<g>
		<path class="st4" d="M154,72.3C153.9,72.3,154,72.3,154,72.3C154,72.3,154,72.2,154,72.3z"/>
		<path class="st4" d="M488.1,72.3C488.1,72.3,488.1,72.3,488.1,72.3C488.2,72.3,488.1,72.2,488.1,72.3z"/>
		<path class="st4" d="M814.1,72.3C814.1,72.3,814.1,72.3,814.1,72.3C814.2,72.3,814.1,72.2,814.1,72.3z"/>
		<path class="st4" d="M1005.9,107.2c0.1-7.6-5.7-9.5-5.7-9.5l1.7,0v-2.1l-1.7,0.1l0-1.7l-1.6,0v-4.2l-1-0.1l-0.1-1.2l-2.7-0.6
			l0.1-1.2l1.5,0l0-0.8l1-0.4l0.2-1l0.9-0.3l-0.7-7.2c0,0,3.4-4,3.3-4c-0.1,0-2.1-2.5-2.1-2.5l-1.9,1.6l-2.1-4.1h-1.9l-1.3-1.8
			l1.1-1.2l0.1-1.8l2-0.3l-1.8-0.5l1.8-1.1l-2.4-0.1l1.4-1.6l-2.2,1.1l-0.2-2l-0.9,1.9l-0.6,0l-1.3-1.1l0.7,1.9l-1.4-0.2V60
			l-0.3-0.2l-0.1-5.2l-0.9-1.2l0-0.3l1.6,0v-1.4l-0.4-0.5l-1.2-0.1l-0.1-0.4l1.3-0.2v-1.2l-0.4-0.7l0-0.6l-0.5-0.5l0.7-1.4v-1
			l-2.7,3.5v1.5l0.5,0.6l0.1,0.3h-0.5l-0.5,0.6v1.6l0.7,0.4l0,1.8h0.9v1.8l-1.4,6.6v2.6l0.8,0.7v2.9l0.7,1.5l-0.7,3.9v1.5h0.8
			l0.1,0.7l-0.1,3.1h0.6l0,3.4l-0.6,2.5v7.2l-1.3,0v1.9l-1.9,0l0.4,2.3l1.6,0l-1.8,3.4c0,0-0.8-6.1-7.8-9.9
			c-0.6-0.3-1.3-0.6-1.9-0.9c-3.2-3.9-9.1-3.2-9.1-3.2v-3.1l-1.3,0.4c-0.4-1.3-1.1-2-1.7-2.4V60.5h-7.8v16h-0.5v6.7l-0.3,0.3H951
			V42.8l-9.9-0.1v28.8c-1,0.1-1.8,0.5-2.6,0.8V48l-7.3-7.3l-8.7,7.2l0.1,17.8c-1.3-0.2-2.5,0-3.4,0.4V34.9l-4.9-0.1l-0.1-1l3.8,0
			l1.2-0.5v-0.8l-0.9-0.8l-4.1-0.1l-0.7-28.5l-0.7,28.5h-4.3l-0.9,0.7l0.1,1l1,0.5h4.2v0.8h-5.6V63l-2.1-1.8l-3.4,3.8v4.6h-1.1v10.9
			h-1.1v4.9h-2.2V60H895v-7.8h-4.6V60h-0.6v7h-7.1v1.2c-1,0-1.6,0-1.6,0v0.4h-0.6v-5.2h-1.3v-2.4h-9v11.9H867v9.6h-1.6v-1.7h-2.8
			v-1.1h-1.3v-1.6h-1.6v4.5h-1.1V74L856.2,60L853.9,74v8l-0.8,0.2V57h-12v5.1h-1.7v10.2h-0.5l-0.9-4.1l-1.1,4.1h-3
			c0-4.1,0-9.4,0-9.4h-2.3v2h-6.5v-1.5h-3.1v2.1h-2.3v-1.6h-2.5v8.5c-1.2,0-2.5,0.1-2.9,0c0.2,0.7-0.1,5.2-0.1,5.2h-1.8v5.6h-1.5
			v-8.8l-1.7-3.2l-1.7,3.8v6.3h-1.2V58h-8.6v3.7h-1v8h-3.1V58.5H788v-9h-7v4.5h-6.8v17.6h-0.6v7.2l-0.6,0.6v-30h-1.3v-9.1h-1.3v-3.9
			H769v-1.5h-1.4v-2.1l-1.2,0.2V32l-0.7-0.1c0,0-0.1-8.9,0-10.5c0.1-1.8-1.8-2-1.8-2v-4.7h-0.6v4.6c-2.2,0.1-2.4,1.8-2.4,1.8v11.7
			h-1.8v1.9h-1.4v1.9l-1.4,0.1v3.3l-1.1,0.1v9.2h-0.7v21.1l-1.1,0.9v0.9c-0.1,0-0.1,0-0.1,0v2.7H752V48.6h-7.2v28.1h-0.3l-3.4-3.4
			V53.5v-2.9H739v-2h-5.6V35.4h-5v27.3h-4.6V39.7h-6v35.2h-1.5v-2.1l-2.5,0.1v-3h-0.1v-1.9h-2.3v-1.6h-0.7V50.7h-8.3V65h-1.6V50.7
			h-7.4v11.8h-2.3v4.9l-0.8-0.5l-1.1,1.2v1.9l-1,0.2v10.5h-1.6V56l-0.7-0.7v-3.7l-1.4-1.4v-8.4l-2-1.9v-2.6l-0.3-0.4v-2.1l-0.5-0.5
			v-2.8l-0.8-0.2v-2.8l-0.3-0.2v-1.8l-0.5-0.4v-1.6l-0.6-1.3l0-12.4v0.2l-0.3,12.2h-0.4v2.3l-1.1,2.4v2l-1.2,1.2v2.6h-0.8v2.8
			l-0.6,0.6v2.3l-0.4,0.4v2.4H674v8.2h-1.1v2.1h-1.3v26.7h-1.6v-1.9H669V60h-15v22.1c-1.2,0.1-2.3,0.1-2.3-0.2c0,0.1,0,1.5,0,3.3
			l-0.7,0.7v-11h-4.3v11.4h-2.1V72h-8.8V60.5H628v16h-0.5v4.9H625V42.8l-9.9-0.1v28.8c-1,0.1-1.8,0.5-2.6,0.8V48l-7.3-7.3l-8.7,7.2
			l0.1,17.8c-1.3-0.2-2.5,0-3.4,0.4V34.9l-4.9-0.1l-0.1-1l3.8,0l1.2-0.5v-0.8l-0.9-0.8l-4.1-0.1l-0.7-28.5l-0.7,28.5h-4.3l-0.9,0.7
			l0.1,1l1,0.5h4.2v0.8h-5.6V63l-2.1-1.8l-3.4,3.8v4.6h-1.1v10.9h-1.1v4.9h-2.2V60H569v-7.8h-4.6V60h-0.6v7h-7.1v1.2
			c-1,0-1.6,0-1.6,0v0.4h-0.6v-5.2h-1.3v-2.4h-9v11.9H541v9.6h-1.6v-1.7h-2.8v-1.1h-1.3v-1.6h-1.6v4.5h-1.1V74L530.2,60L527.9,74v8
			l-0.8,0.2V57h-12v5.1h-1.7v10.2h-0.5l-0.9-4.1l-1.1,4.1h-3c0-4.1,0-9.4,0-9.4h-2.3v2h-6.5v-1.5h-3.1v2.1h-2.3v-1.6h-2.5v8.5
			c-1.2,0-2.5,0.1-2.9,0c0.2,0.7-0.1,5.2-0.1,5.2h-1.8v5.6h-1.5v-8.8l-1.7-3.2l-1.7,3.8v6.3h-1.2V58h-8.6v3.7h-1v8h-3.1V58.5H462v-9
			h-7v4.5h-6.8v17.6h-0.6v7.2l-0.6,0.6v-30h-1.3v-9.1h-1.3v-3.9h-1.3v-1.5h-1.4v-2.1l-1.2,0.2V32l-0.7-0.1c0,0-0.1-8.9,0-10.5
			c0.1-1.8-1.8-2-1.8-2v-4.7h-0.6v4.6c-2.2,0.1-2.4,1.8-2.4,1.8v11.7h-1.8v1.9h-1.4v1.9l-1.4,0.1v3.3l-1.1,0.1v9.2h-0.7v21.1
			l-1.1,0.9v0.9c-0.1,0-0.1,0-0.1,0v2.7H426V48.6h-7.2v28.1h-0.3l-3.4-3.4V50.6H413v-2h-5.6V35.4h-5v27.3h-4.6V39.7h-6v35.2h-1.5
			v-2.1l-2.5,0.1v-3h-0.1v-1.9h-2.3v-1.6h-0.7V50.7h-8.3V65h-1.6V50.7h-7.4v11.8h-2.3v4.9l-0.8-0.5l-1.1,1.2v1.9l-1,0.2v10.5h-1.6
			V56l-0.7-0.7v-3.7l-1.4-1.4v-8.4l-2-1.9v-2.6l-0.3-0.4v-2.1l-0.5-0.5v-2.8l-0.8-0.2v-2.8l-0.3-0.2v-1.8l-0.5-0.4v-1.6l-0.6-1.3
			l0-12.4v0.2l-0.3,12.2h-0.4v2.3l-1.1,2.4v2l-1.2,1.2v2.6h-0.8v2.8l-0.6,0.6v2.3l-0.4,0.4v2.4H348v8.2h-1.1v2.1h-1.3v26.7h-1.6
			v-1.9H343V60h-15v22.1c-1.2,0.1-2.3,0.1-2.3-0.2v3.3l-0.7,0.7v-11h-4.3v11.4h-2.1V72h-10v15.7c-0.9-0.2-1.8-0.3-2.5-0.3v-5.9h-4.5
			V60.5h-7.8v16h-0.5v6.7l-0.3,0.3h-2.1V42.8l-9.9-0.1v28.8c-1,0.1-1.8,0.5-2.6,0.8V48l-7.3-7.3l-8.7,7.2l0.1,17.8
			c-1.3-0.2-2.5,0-3.4,0.4V34.9l-4.9-0.1l-0.1-1l3.8,0l1.2-0.5v-0.8l-0.9-0.8l-4.1-0.1l-0.7-28.5l-0.7,28.5h-4.3l-0.9,0.7l0.1,1
			l1,0.5h4.2v0.8H247V63l-2.1-1.8l-3.4,3.8v4.6h-1.1v10.9h-1.1v4.9h-2.2V60h-2.4v-7.8h-4.6V60h-0.6v7h-7.1v1.2c-1,0-1.6,0-1.6,0v0.4
			h-0.6v-5.2h-1.3v-2.4h-9v11.9h-3.3v9.6h-1.6v-1.7h-2.8v-1.1h-1.3v-1.6h-1.6v4.5h-1.1V74L196,60L193.7,74v8l-0.8,0.2V57h-12v5.1
			h-1.7v10.2h-0.5l-0.9-4.1l-1.1,4.1h-3c0-4.1,0-9.4,0-9.4h-2.3v2h-6.5v-1.5h-3.1v2.1h-2.3v-1.6h-2.5v8.5c-1.2,0-2.5,0.1-2.9,0
			c0.2,0.7-0.1,5.2-0.1,5.2h-1.8v5.6h-1.5v-8.8l-1.7-3.2l-1.7,3.8v6.3h-1.2V58h-8.6v3.7h-1v8h-3.1V58.5h-5.5v-9h-7v4.5H114v17.6
			h-0.6v7.2l-0.6,0.6v-30h-1.3v-9.1h-1.3v-3.9h-1.3v-1.5h-1.4v-2.1l-1.2,0.2V32l-0.7-0.1c0,0-0.1-8.9,0-10.5c0.1-1.8-1.8-2-1.8-2
			v-4.7h-0.6v4.6c-2.2,0.1-2.4,1.8-2.4,1.8v11.7h-1.8v1.9h-1.4v1.9l-1.4,0.1v3.3l-1.1,0.1v9.2h-0.7v21.1l-1.1,0.9v0.9
			c-0.1,0-0.1,0-0.1,0v2.7h-1.5V48.6h-7.2v28.1h-0.3L81,73.4V50.6h-2.1v-2h-5.6V35.4h-5v27.3h-4.6V39.7h-6v35.2h-1.5v-2.1l-2.5,0.1
			v-3h-0.1v-1.9h-2.3v-1.6h-0.7V50.7h-8.3V65h-1.6V50.7h-7.4v11.8h-2.3v4.9l-0.8-0.5l-1.1,1.2v1.9l-1,0.2v10.5h-1.6V56l-0.7-0.7
			v-3.7L24,50.2v-8.4l-2-1.9v-2.6l-0.3-0.4v-2.1l-0.5-0.5v-2.8l-0.8-0.2v-2.8l-0.3-0.2v-1.8l-0.5-0.4v-1.6L19,23.4l0-12.4v0.2
			l-0.3,12.2h-0.4v2.3L17.2,28v2l-1.2,1.2v2.6h-0.8v2.8l-0.6,0.6v2.3l-0.4,0.4v2.4h-0.5v8.2h-1.1v2.1h-1.3v26.7H9.8v-1.9H8.8V60h-15
			v22.1c-1.2,0.1-2.3,0.1-2.3-0.2v3.3l-0.7,0.7v-11h-4.3v11.4h-2.1V72h-10v19.4h-2.5v-10h-9.8v26l334.2-0.2v0.2l326-0.2v0.2
			L1005.9,107.2z"/>
	</g>
</g>
</svg>
