<?xml version="1.0" encoding="utf-8"?>
<!-- Generator: Adobe Illustrator 22.0.1, SVG Export Plug-In . SVG Version: 6.00 Build 0)  -->
<svg version="1.1" xmlns="http://www.w3.org/2000/svg" xmlns:xlink="http://www.w3.org/1999/xlink" x="0px" y="0px"
	 viewBox="0 0 1146 1153.1" style="enable-background:new 0 0 1146 1153.1;" xml:space="preserve">
<style type="text/css">
	.st0{display:none;}
	.st1{display:inline;fill:#FFFFFF;}
	.st2{display:inline;}
	.st3{fill:#DA1F26;}
	.st4{fill:#66101B;}
	.st5{fill:#8E161F;}
	.st6{opacity:0.34;fill:#FFFFFF;}
	.st7{opacity:0.2;}
	.st8{fill:#383533;}
	.st9{opacity:0.15;}
	.st10{fill:#3F3B38;}
	.st11{fill:#FFFFFF;}
</style>
<g id="BG" class="st0">
	<rect x="13" class="st1" width="1122" height="1122"/>
	<g id="Layer_2" class="st2">
	</g>
</g>
<g id="Icon">
	<g>
		<g>
			<g>
				<path class="st3" d="M738.6,805.8H407.4c-8.3,0-13.5,8.9-9.5,16.2l23.9,28.9h302.2L748,822C752.1,814.7,746.9,805.8,738.6,805.8
					z"/>
			</g>
			<g>
				<path class="st4" d="M810.6,1011.7H335.4c-7.3,0-14.2,2-20.2,5.4c-11.9,7-20,19.9-20,34.7h40.1h40.1h394.9h40.1h40.1
					C850.7,1029.7,832.7,1011.7,810.6,1011.7z"/>
			</g>
			<g>
				<polygon class="st5" points="651.7,1051.9 295.3,1051.9 295.3,1092 651.7,1092 850.7,1092 850.7,1051.9 				"/>
			</g>
			<g>
				<path class="st5" d="M803.3,917.8c-10-5.9-19.7-12.4-29-19.5c-9.3-7-18.1-14.5-26.5-22.5c-4.3-4.1-8.5-8.3-12.6-12.7
					c-1.6-1.7-10.7-12-10.7-12H574.5H573h-1.5H421.5c0,0-9.1,10.3-10.7,12c-4.1,4.3-8.3,8.6-12.6,12.7c-8.4,8-17.3,15.5-26.5,22.5
					c-9.3,7-19,13.5-29,19.5c-21.8,12.9-47.4,24.5-47.4,53.8c0,22.2,18,40.1,40.1,40.1h236.1h1.5h1.5h236.1
					c22.2,0,40.1-18,40.1-40.1C850.7,942.3,825.1,930.7,803.3,917.8z"/>
			</g>
			<g>
				<path class="st6" d="M316.3,969.8c0-13.4,7.4-25,18.3-31.1c-15.7,0.6-28.2,13.5-28.2,29.3c0,13.7,9.4,25.1,22,28.4
					C321,990,316.3,980.5,316.3,969.8z"/>
			</g>
			<g>
				<g>
					<path class="st3" d="M805.7,271.5c-17.6-43.7-47.2-82.2-84.8-110.6c-18.8-14.2-39.7-25.7-61.6-34.6c-20.3-8.2-69-19.3-69-16.8
						c0,0,0-72.2,0-72.2c0-5.3-5.5-8.8-10.3-6.6c-32.7,15.2-56.7,45.4-63.6,81.8l0.1,0.1c0,0-0.1,0-0.1,0c-19,0-32.4,9.6-44.4,25.8
						c0,0-127.8,160.3-127.8,160.3c-8.4,10-13,23.1-11.8,37.4c2.1,24.7,22.3,44.7,47,46.6c7,0.5,13.6-0.3,19.8-2.3
						c14.3-26.1,39-45.8,68.5-53.5c3.7-0.8,7.5-1.2,11.3-1.2c3.3,0,6.5,0.3,9.7,0.9c3,0.6,5.8,1.8,8.7,2.5c6.2,1.6,12.6,2.4,19,2.4
						c33.5,0,61.8-21.5,72.2-51.5l0,0.1c0.5,6.1,0.7,12.2,0.7,18.5c0,44.1-12.7,85.3-34.6,120.1c-2,2.7-9.5,12.7-20.4,24.9
						c-24.3,26.7-55.6,45.6-81.5,70.6c-56,54.1-89,129-91.4,206.7c0,0,0,0.1,0,0.1c-0.6,9.3-0.3,18.6-0.3,27.9
						c0,26.3,17.6,48.4,41.6,55.4c8.1,2.3,25.1,1.5,25.1,1.5c52.4,0,264.4,0,298.1,0c30.7,0,55.6-24.6,56.1-55.1
						c-0.2-3.2-0.4-6.4-0.6-9.6c-1.1-17.3-1.6-34.8-1.6-52.4c0-64.3,6.1-133.5,21-197.7c3-13.1,6.4-26,10.2-38.6
						C828.9,393.5,828.9,328.9,805.7,271.5z"/>
				</g>
			</g>
			<g class="st7">
				<path class="st8" d="M428.2,805.8h297.3c0.2,0,0.5,0,0.7,0c30.7,0,55.6-24.6,56.1-55.1c-0.2-3.2-0.4-6.4-0.6-9.6
					c-1.1-17.3-1.6-34.8-1.6-52.4c0-59.4,5.3-123,17.8-183c-19.4,73.1-102.7,298.5-394.8,298.5c3.2,0.9,7.8,1.4,12.1,1.5H428.2z"/>
			</g>
			<g class="st9">
				<path class="st10" d="M551.5,109.3c5.1,0,39,0,39,0c0-9.3,0-72.1,0-72.1S546.4,109.3,551.5,109.3z"/>
			</g>
			<g class="st9">
				<path class="st11" d="M403.1,238.9c-25.7,32.2-50.3,63.1-50.3,63.1c-7,8.4-11,19.5-9.9,31.6c1.3,15.1,10.6,28,23.5,34.7
					c-0.1-2.1-0.1-4.1-0.1-6.2C366.3,316.5,379.9,274.2,403.1,238.9z"/>
			</g>
		</g>
	</g>
	<g>
		<path class="st3" d="M74.5,1146c42.1-2.7,84.3-4.6,126.4-6.6l63.2,0.1h63.2H580h252.8h126.4c42.1,2,84.3,3.9,126.4,6.5
			c-42.1,2.6-84.3,4.5-126.4,6.5H832.8H580H327.3h-63.2l-63.2,0.1C158.8,1150.6,116.6,1148.7,74.5,1146z"/>
	</g>
</g>
</svg>
