<?xml version="1.0" encoding="utf-8"?>
<!-- Generator: Adobe Illustrator 22.0.1, SVG Export Plug-In . SVG Version: 6.00 Build 0)  -->
<svg version="1.1" id="Capa_1" xmlns="http://www.w3.org/2000/svg" xmlns:xlink="http://www.w3.org/1999/xlink" x="0px" y="0px"
	 viewBox="0 0 401.7 401.7" style="enable-background:new 0 0 401.7 401.7;" xml:space="preserve">
<style type="text/css">
	.st0{display:none;}
	.st1{display:inline;}
	.st2{fill:#DA1F26;}
	.st3{fill:none;stroke:#DA2027;stroke-width:6;stroke-miterlimit:10;}
</style>
<g class="st0">
	<g class="st1">
		<path class="st2" d="M316.8,157.9l-99-48.4c-8.5-4.3-23-4.3-31.6,0L84.9,157.9c-7.1,3.4-8.3,8.3-8.3,10.8s1.1,7.1,8.3,10.8l8.3,4
			V229c-5.1,2-8.8,7.1-8.8,12.8s3.7,10.8,8.5,12.8l-12.8,40.7h35.8l-12.8-40.7c5.1-2,8.5-7.1,8.5-12.8c0-6-3.7-10.8-8.8-12.8v-40.7
			l15.1,7.4v59.2c0,0.9,0.3,1.7,0.9,2.6c1.4,1.7,27.9,37.8,81.9,37.8s80.5-36.4,81.6-37.8c0.6-0.9,0.9-1.7,0.9-2.6V196l33.6-16.5
			c7.1-3.4,8.3-8.3,8.3-10.8C324.7,166.2,323.9,161.3,316.8,157.9z M274.1,253.5c-4.6,5.7-29,33-73.4,33s-68.8-27.3-73.4-33v-53.8
			l58.9,28.2c4.3,2,10,3.1,15.6,3.1c6,0,11.7-1.1,15.9-3.4l56.3-27.6V253.5z M312.8,171.6c-1.4,0.7-2.8,1.3-4.2,2
			c-1.3,0.6-2.6,1.3-3.9,1.9c-3.6,1.8-7.2,3.5-10.8,5.3c-4.6,2.2-9.1,4.4-13.7,6.7c-5,2.5-10.1,4.9-15.1,7.4
			c-5.1,2.5-10.2,5-15.3,7.5c-4.7,2.3-9.4,4.6-14.1,6.9c-3.9,1.9-7.7,3.8-11.6,5.7c-2.6,1.3-5.1,2.5-7.7,3.8
			c-0.8,0.4-1.7,0.8-2.5,1.2c-6,3.1-17.6,3.1-23.9,0l-76-36.4l87.3-10.2c2.6-0.3,4.3-2.6,4-4.8c-0.3-2.6-2.6-4.3-4.8-4L99.1,176.4
			c0,0-10.2-4.8-10.2-4.8c-0.9-0.4-3.1-1.5-3.1-2.7c0.1-1.2,2.2-2,3.1-2.4c0,0,101.3-48.6,101.3-48.6c3.1-1.4,7.4-2.3,11.7-2.3
			c4.6,0,9.1,0.9,11.9,2.3c0,0,98.9,48.3,99,48.4c1.1,0.5,3.7,1.6,2.9,3.3c-0.2,0.4-0.6,0.7-0.9,1
			C314.2,170.9,313.5,171.3,312.8,171.6z"/>
	</g>
</g>
<rect x="17.3" y="17.3" class="st3" width="367" height="367"/>
<path class="st2" d="M315.9,110.4c-1.4-0.9-3.2-1-4.7-0.2l-38.3,18.1c-13.5,6.4-22.6,19.5-23.8,34.4l-1,12.3l-19.9,33v-14.1
	c0,0,0-0.1,0-0.1c0-0.5-0.1-1-0.2-1.4l-9.2-27.7l18.9-37.7c0.8-1.7,0.6-3.7-0.5-5.2L207.5,82c-1.8-2.2-5-2.5-7.2-0.7
	c-0.3,0.2-0.5,0.4-0.7,0.7l-29.7,39.6c-1.1,1.5-1.3,3.5-0.5,5.2l18.9,37.7l-9.2,27.7c-0.1,0.5-0.2,0.9-0.2,1.4v0.1v19.7L148,166.8
	c0-0.1-0.1-0.1-0.1-0.1c-0.3-0.4-0.7-0.8-1.1-1.1c-0.1-0.1-0.2-0.1-0.3-0.2c-0.1-0.1-0.1-0.1-0.2-0.1l-18.1-10.5l-7.5-11.4
	l-10.9-16.5c-1.2-1.9-3.6-2.7-5.8-1.9l-19.2,6.8c-2.6,0.9-3.9,3.7-3,6.3c0.1,0.4,0.3,0.7,0.5,1.1l13.6,20.7l7.5,11.4l2.5,20.8
	c0,0.1,0,0.1,0,0.2c0,0.1,0,0.2,0.1,0.3c0.1,0.5,0.3,1,0.6,1.5c0,0,0,0.1,0.1,0.2c0,0,73.6,111.5,73.9,111.8
	c3.6,9.5,12.7,15.8,22.9,15.8c2,0,4-0.2,6-0.7c6.4-1.6,11.9-5.6,15.2-11.2l65.8-109.1l10.4-6.6c5.5-3.5,10-8.2,13.4-13.7
	c4.2-7,6.3-15.2,5.9-23.4l-1.9-42.4C318.2,112.8,317.3,111.3,315.9,110.4z M280.1,198.6l-7.7,12.7L247,195.9l7.7-12.7L280.1,198.6z
	 M188.7,273.5v-74.8h29.7v25.6L188.7,273.5z M197.2,169.1h12.7l6.6,19.8h-25.8L197.2,169.1z M203.5,134.4c-2.7,0-4.9-2.2-4.9-4.9
	c0-2.7,2.2-4.9,4.9-4.9c2.7,0,4.9,2.2,4.9,4.9C208.5,132.2,206.3,134.4,203.5,134.4z M203.5,93.2l23.9,31.8l-17.1,34.1h-1.9v-15.7
	c7.7-2.7,11.8-11.2,9-18.9c-2.7-7.7-11.2-11.8-18.9-9c-7.7,2.7-11.8,11.2-9,18.9c1.5,4.2,4.8,7.6,9,9v15.7h-1.9l-17.1-34.1
	L203.5,93.2z M134.4,169.8l-1.5,1l-18.2,12l-1.7-14c-0.1-0.8-0.4-1.5-0.8-2.1l-5.4-8.3l8.3-5.4l5.4,8.3c0.4,0.6,1,1.2,1.7,1.6
	L134.4,169.8z M103.6,135.4l6,9.2l-8.3,5.4L94,138.8L103.6,135.4z M130,184.5l12.4-8.2l36.4,55.2v54l-61.1-92.8L130,184.5z
	 M216.2,304.5c-4.2,7-13.3,9.4-20.3,5.2c-7-4.2-9.4-13.3-5.2-20.3c0,0,0.1-0.1,0.1-0.1l37.4-61.9h0.1V227l13.6-22.6l12.7,7.7
	l12.7,7.6L216.2,304.5z M305.8,175.1c-2.6,4.2-6,7.8-10.2,10.4l-8.8,5.6l-14.3-8.6l-14.3-8.6l0.8-10.4c0.9-11.4,7.8-21.4,18.1-26.2
	l31.7-14.9l0.6,13.8c-0.5-0.1-1,0-1.5,0.1l-12,3c-11.1,2.7-19.8,11.5-22.3,22.8c-0.6,2.7,1.1,5.3,3.7,5.9c0.4,0.1,0.7,0.1,1.1,0.1
	c2.3,0,4.3-1.6,4.8-3.9c1.7-7.5,7.5-13.5,15-15.3l11.6-2.9l0.5,11.4C310.6,163.5,309,169.7,305.8,175.1z"/>
</svg>
