<?xml version="1.0" encoding="utf-8"?>
<!-- Generator: Adobe Illustrator 22.0.1, SVG Export Plug-In . SVG Version: 6.00 Build 0)  -->
<svg version="1.1" xmlns="http://www.w3.org/2000/svg" xmlns:xlink="http://www.w3.org/1999/xlink" x="0px" y="0px"
	 viewBox="0 0 872.3 892.8" style="enable-background:new 0 0 872.3 892.8;" xml:space="preserve">
<style type="text/css">
	.st0{display:none;}
	.st1{display:inline;fill-rule:evenodd;clip-rule:evenodd;fill:#F2715C;}
	.st2{display:inline;}
	.st3{fill-rule:evenodd;clip-rule:evenodd;fill:none;stroke:#FF8F78;stroke-width:1.1999;stroke-miterlimit:22.9256;}
	.st4{fill-rule:evenodd;clip-rule:evenodd;fill:#97F2DC;}
	.st5{fill:#97F2DC;}
	.st6{fill-rule:evenodd;clip-rule:evenodd;fill:#0C6E59;}
	.st7{display:none;fill-rule:evenodd;clip-rule:evenodd;fill:#F2715C;}
	.st8{fill-rule:evenodd;clip-rule:evenodd;fill:#FFFFFF;}
	.st9{fill-rule:evenodd;clip-rule:evenodd;fill:#2F9982;}
	.st10{fill-rule:evenodd;clip-rule:evenodd;fill:#F9A818;}
	.st11{fill-rule:evenodd;clip-rule:evenodd;fill:#9BB5B5;}
	.st12{fill-rule:evenodd;clip-rule:evenodd;fill:#FFAE00;}
	.st13{fill-rule:evenodd;clip-rule:evenodd;fill:#DA4622;}
	.st14{fill-rule:evenodd;clip-rule:evenodd;fill:#6AD9C3;}
	.st15{fill-rule:evenodd;clip-rule:evenodd;fill:#ED8970;}
	.st16{fill:#9BB5B5;}
	.st17{fill-rule:evenodd;clip-rule:evenodd;fill:none;stroke:#97F2DC;stroke-width:6.0001;stroke-miterlimit:22.9256;}
	.st18{fill:#F7AB9C;}
	.st19{fill-rule:evenodd;clip-rule:evenodd;fill:#F7AB9C;}
	.st20{font-family:'Arial-BoldMT';}
	.st21{font-size:40.4926px;}
	.st22{fill-rule:evenodd;clip-rule:evenodd;fill:none;stroke:#FF8F78;stroke-width:2.4001;stroke-miterlimit:22.9256;}
	.st23{fill-rule:evenodd;clip-rule:evenodd;fill:#657A7A;}
	.st24{fill-rule:evenodd;clip-rule:evenodd;fill:#283636;}
	.st25{fill-rule:evenodd;clip-rule:evenodd;fill:#556666;}
	.st26{fill-rule:evenodd;clip-rule:evenodd;fill:#DA1F26;}
	.st27{fill-rule:evenodd;clip-rule:evenodd;fill:#CCCCCC;}
	.st28{fill-rule:evenodd;clip-rule:evenodd;fill:#53BEA9;}
	.st29{fill-rule:evenodd;clip-rule:evenodd;fill:#3BA48E;}
	.st30{fill-rule:evenodd;clip-rule:evenodd;fill:#248974;}
	.st31{fill-rule:evenodd;clip-rule:evenodd;fill:#7C151D;}
</style>
<g id="Background" class="st0">
	<rect class="st1" width="799.9" height="799.9"/>
	<g class="st2">
		<path class="st3" d="M34.8,0v799.9 M69.6,0v799.9 M104.3,0v799.9 M139.1,0v799.9 M173.9,0v799.9 M208.7,0v799.9 M243.5,0v799.9
			 M278.2,0v799.9 M313,0v799.9 M347.8,0v799.9 M382.6,0v799.9 M417.3,0v799.9 M452.1,0v799.9 M486.9,0v799.9 M521.7,0v799.9
			 M556.5,0v799.9 M591.2,0v799.9 M626,0v799.9 M660.8,0v799.9 M695.6,0v799.9 M730.4,0v799.9 M765.1,0v799.9"/>
		<path class="st3" d="M799.9,34.8H0 M799.9,69.6H0 M799.9,104.3H0 M799.9,139.1H0 M799.9,173.9H0 M799.9,208.7H0 M799.9,243.5H0
			 M799.9,278.2H0 M799.9,313H0 M799.9,347.8H0 M799.9,382.6H0 M799.9,417.3H0 M799.9,452.1H0 M799.9,486.9H0 M799.9,521.7H0
			 M799.9,556.5H0 M799.9,591.2H0 M799.9,626H0 M799.9,660.8H0 M799.9,695.6H0 M799.9,730.4H0 M799.9,765.1H0"/>
	</g>
</g>
<g id="Objects">
	<circle class="st4" cx="243.5" cy="452.6" r="9.9"/>
	<circle class="st4" cx="347.8" cy="278.7" r="9.9"/>
	<g>
		<polygon class="st5" points="32.4,485.6 136.7,346.5 138.8,343.7 141.2,346.1 242.9,447.8 345.2,277.2 348,272.5 350.5,277.4 
			452.4,481.2 553.9,311.9 555.5,309.2 558.1,311 659.5,378.5 762.4,138.4 767.9,140.8 663.6,384.2 662.1,387.5 659.1,385.5 
			557.4,317.7 454.7,488.9 451.9,493.6 449.5,488.7 347.6,284.9 246,454.1 244,457.4 241.3,454.7 139.4,352.8 37.2,489.2 		"/>
		<circle class="st6" cx="452.1" cy="487.4" r="9.9"/>
	</g>
	
		<ellipse transform="matrix(0.9998 -2.219712e-02 2.219712e-02 0.9998 -6.8213 12.4292)" class="st4" cx="556.5" cy="313.5" rx="9.9" ry="9.9"/>
	<ellipse transform="matrix(0.9603 -0.2789 0.2789 0.9603 -80.6097 199.4995)" class="st4" cx="660.8" cy="383" rx="9.9" ry="9.9"/>
	<path class="st4" d="M765.1,149.5c5.5,0,9.9-4.5,9.9-9.9c0-5.5-4.5-9.9-9.9-9.9s-9.9,4.5-9.9,9.9
		C755.2,145.1,759.7,149.5,765.1,149.5z"/>
	
		<ellipse transform="matrix(0.1357 -0.9908 0.9908 0.1357 -113.0731 896.2245)" class="st7" cx="457.1" cy="512.9" rx="137.8" ry="137.8"/>
	<circle class="st4" cx="34.8" cy="487.4" r="9.9"/>
	<g>
		<path class="st6" d="M576.3,187.6h-39.8c-7.7,0-14,6.3-14,14v68.6c0,7.7,6.3,14,14,14h39.8c7.7,0,14-6.3,14-14v-68.6
			C590.3,193.9,584,187.6,576.3,187.6z"/>
		<path class="st8" d="M585.3,195.7h-57.7c-0.1,0-0.2,0.1-0.2,0.2v79.2c0,0.1,0.1,0.2,0.2,0.2h57.7c0.1,0,0.2-0.1,0.2-0.2v-79.2
			C585.5,195.8,585.4,195.7,585.3,195.7z"/>
		<path class="st9" d="M563.9,190H549c-0.4,0-0.7,0.3-0.7,0.7v0c0,0.4,0.3,0.7,0.7,0.7h14.9c0.4,0,0.7-0.3,0.7-0.7v0
			C564.6,190.3,564.3,190,563.9,190z"/>
		<path class="st9" d="M556.5,282.2c1.4,0,2.5-1.1,2.5-2.5s-1.1-2.5-2.5-2.5c-1.4,0-2.5,1.1-2.5,2.5S555.1,282.2,556.5,282.2z"/>
		<rect x="562.7" y="202.7" class="st10" width="4.1" height="0.9"/>
		<rect x="568.2" y="202.7" class="st10" width="4.1" height="0.9"/>
		<rect x="573.7" y="202.7" class="st10" width="4.1" height="0.9"/>
		<rect x="579.2" y="202.7" class="st10" width="4.1" height="0.9"/>
		<rect x="530.5" y="202.7" class="st11" width="22.3" height="3.8"/>
		<g>
			<rect x="533" y="268.8" class="st12" width="46.8" height="1.3"/>
			<rect x="571.6" y="241.8" class="st11" width="8.3" height="27"/>
			<rect x="561.9" y="252" class="st13" width="8.3" height="16.8"/>
			<rect x="552.3" y="257.7" class="st14" width="8.3" height="11.1"/>
			<rect x="542.7" y="252.4" class="st12" width="8.3" height="16.4"/>
			<rect x="533" y="257.1" class="st15" width="8.3" height="11.7"/>
		</g>
		<g>
			<path class="st11" d="M535.4,243.6c1,0,1.8,0.8,1.8,1.8c0,1-0.8,1.8-1.8,1.8c-1,0-1.8-0.8-1.8-1.8
				C533.6,244.4,534.4,243.6,535.4,243.6z"/>
			<polygon class="st11" points="579.3,225.1 574.7,225.2 576.3,227.4 577.9,229.6 			"/>
			<path class="st16" d="M537,242.9l13.4-10l0.4-0.3l0.3,0.4l6.4,7.5l17.8-13.2l0.4,0.5l0.3,0.4l-18.2,13.5l-0.4,0.3l-0.3-0.4
				l-6.4-7.5l-12.9,9.6C537.5,243.5,537.2,243.2,537,242.9z"/>
		</g>
		<rect x="530.5" y="208.4" class="st14" width="52.8" height="10"/>
	</g>
	<g>
		<path class="st8" d="M190.2,418.2c-12.7,16.5-31.8,25.2-51.1,25.2v-37.2c8.2,0,16.2-3.7,21.6-10.7c9.1-11.9,6.9-29-5-38.1
			c-4.9-3.8-10.8-5.6-16.5-5.6v-37.2c13.7,0,27.5,4.3,39.2,13.3C206.5,349.5,211.9,389.9,190.2,418.2z M139.1,443.4
			c-13.7,0-27.5-4.3-39.2-13.3c-28.2-21.6-33.6-62.1-12-90.3c12.7-16.5,31.8-25.2,51.1-25.2v37.2c-8.2,0-16.2,3.7-21.6,10.7
			c-9.1,11.9-6.9,29,5,38.1c4.9,3.8,10.8,5.6,16.5,5.6V443.4z"/>
		<path class="st13" d="M180.1,333.7c12.6,11.4,20.4,27.9,20.1,46.1c-0.4,26.6-17.7,49.1-41.7,57.1l-9.6-28.6
			c12.1-4.1,20.9-15.4,21.1-28.9c0.1-9.2-3.8-17.6-10.2-23.3L180.1,333.7z"/>
		<path class="st11" d="M115.3,322.8c7.6-3.2,15.9-5,24.7-4.8c15.5,0.2,29.5,6.2,40.1,15.8l-20.3,22.4c-5.4-4.9-12.5-7.9-20.3-8
			c-4.4-0.1-8.7,0.8-12.5,2.4L115.3,322.8z"/>
		<path class="st15" d="M100.2,331.9c4.5-3.7,9.6-6.8,15-9.2l11.8,27.8c-2.8,1.2-5.3,2.7-7.6,4.6L100.2,331.9z"/>
		<path class="st12" d="M105.7,430.2c-16.9-11.1-28-30.3-27.7-52c0.3-18.7,8.8-35.2,22.2-46.3l19.2,23.3c-6.7,5.6-11.1,14-11.2,23.4
			c-0.2,11,5.4,20.7,14,26.3L105.7,430.2z"/>
		<path class="st14" d="M138.3,440.1c-0.3,0-0.6,0-0.9,0c-11.7-0.3-22.5-3.9-31.7-9.9l16.5-25.3c4.6,3,10.1,4.8,16,5
			c0.2,0,0.3,0,0.5,0c3.6,0,7-0.5,10.2-1.6l9.6,28.6C152.2,439.1,145.4,440.2,138.3,440.1z"/>
	</g>
	<line class="st17" x1="139.1" y1="348.3" x2="214.1" y2="423.2"/>
	<circle class="st4" cx="139.1" cy="348.3" r="9.9"/>
	<g>
		<path class="st18" d="M745.8,340.1c0.2,0,0.5,0,0.7,0l0.9,4l8.5-1.8l-0.9-4c3.1-1.3,5.9-3.2,8.1-5.6l3.5,2.2l4.7-7.3l-3.5-2.2
			c1.2-3,1.9-6.3,1.8-9.7l4-0.9l-1.8-8.5l-4,0.9c-1.3-3.1-3.2-5.9-5.6-8.1l2.2-3.5l-7.3-4.7l-2.2,3.5c-2.8-1.1-5.9-1.8-9-1.8v6.2
			c8.1,0,15.4,5.6,17.2,13.8c2.1,9.5-3.9,18.8-13.4,20.9c-1.3,0.3-2.5,0.4-3.7,0.4V340.1z M729.5,333.6l-2.2,3.5l7.3,4.7l2.2-3.5
			c2.8,1.1,5.8,1.8,9,1.8v-6.2c-8.1,0-15.4-5.6-17.2-13.8c-2.1-9.5,3.9-18.8,13.4-20.9l0,0c1.3-0.3,2.5-0.4,3.7-0.4v-6.2
			c-0.2,0-0.5,0-0.7,0l-0.9-4l-8.5,1.8l0.9,4c-3.1,1.3-5.9,3.2-8.1,5.6l-3.5-2.2l-4.7,7.3l3.5,2.2c-1.2,3-1.9,6.3-1.8,9.7l-4,0.9
			l1.8,8.5l4-0.9C725.2,328.6,727.1,331.4,729.5,333.6z"/>
		<path class="st18" d="M727.3,377.9c0.2,0,0.3,0,0.5,0l0.6,2.8l6-1.3l-0.6-2.8c2.2-0.9,4.1-2.3,5.7-4l2.4,1.6l3.3-5.1l-2.4-1.6
			c0.9-2.1,1.3-4.4,1.2-6.8l2.8-0.6l-1.3-6l-2.8,0.6c-0.9-2.2-2.3-4.1-4-5.7l1.6-2.4l-5.1-3.3l-1.6,2.4c-2-0.8-4.1-1.2-6.3-1.2v4.4
			c5.7,0,10.8,3.9,12,9.7c1.4,6.6-2.8,13.2-9.4,14.7c-0.9,0.2-1.8,0.3-2.6,0.3V377.9z M715.8,373.3l-1.6,2.4l5.1,3.3l1.6-2.4
			c2,0.8,4.1,1.2,6.3,1.2v-4.4c-5.7,0-10.8-3.9-12-9.7c-1.4-6.6,2.8-13.2,9.4-14.7l0,0c0.9-0.2,1.8-0.3,2.6-0.3v-4.4
			c-0.2,0-0.3,0-0.5,0l-0.6-2.8l-6,1.3l0.6,2.8c-2.2,0.9-4.1,2.3-5.7,4l-2.4-1.6l-3.3,5.1l2.4,1.6c-0.9,2.1-1.3,4.4-1.2,6.8
			l-2.8,0.6l1.3,6l2.8-0.6C712.8,369.8,714.1,371.8,715.8,373.3z"/>
	</g>
	<g>
		<polygon class="st18" points="423.5,332 423.2,339.5 445.3,339.5 444.9,332 		"/>
		<path class="st18" d="M444.8,330.1h20.5v-38.7h-31.1v4.8h25.5v29.1h-15.1h-10.4v4.8H444.8z M434.2,291.4h-31.1v38.7h20.5h10.6
			v-4.8h-10.4h-15.1l0,0v-29.1h25.5V291.4z"/>
		<polygon class="st18" points="418.9,341.4 418.9,344.4 449.5,344.4 449.5,341.4 445.4,341.4 423.1,341.4 		"/>
	</g>
	<g>
		<path class="st18" d="M240.9,474.3c6,0,11.4,2.4,15.4,6.4c3.9,3.9,6.4,9.4,6.4,15.4c0,3.8-1,7.4-2.7,10.6
			c-1.7,3.1-4.2,5.7-7.1,7.6l-2.1,16.3c-0.1,0.6-0.6,1.1-1.2,1.1v0h-8.6v-2.5h7.5l2-15.8c0-0.4,0.2-0.7,0.6-0.9
			c2.8-1.7,5.1-4.1,6.7-7c1.5-2.8,2.4-6,2.4-9.4c0-5.3-2.2-10.1-5.6-13.6c-3.5-3.5-8.3-5.6-13.6-5.6h0L240.9,474.3L240.9,474.3z
			 M240.9,531.6h-8.6c-0.7,0-1.2-0.5-1.2-1.2l-2.1-16.2c-2.9-1.9-5.4-4.5-7.1-7.6c-1.8-3.1-2.7-6.7-2.7-10.6c0-6,2.4-11.4,6.4-15.4
			c3.9-3.9,9.4-6.4,15.4-6.4v2.5c-5.3,0-10.1,2.2-13.6,5.6c-3.5,3.5-5.6,8.3-5.6,13.6c0,3.4,0.9,6.6,2.4,9.4c1.6,2.9,3.9,5.3,6.7,7
			v0c0.3,0.2,0.5,0.5,0.6,0.9l2,15.8h7.5V531.6z"/>
		<g>
			<path class="st18" d="M237.6,521.7c0.1,0.4-0.2,0.9-0.6,1c-0.4,0.1-0.9-0.2-1-0.6l-3.5-14.2v-6.7l0.1,0.2c0-0.1,0-0.1-0.1-0.2v0
				c0.3,0.3,0.6,0.6,1,0.9c2,1.6,4.6,2.5,7.2,2.5c2.6,0,5.1-0.8,7-2.5c0.3-0.3,0.6-0.6,0.9-0.9c0.3-0.3,0.8-0.4,1.1-0.1
				c0.3,0.2,0.4,0.6,0.3,0.9l-5,20.3c-0.1,0.4-0.5,0.7-1,0.6c-0.4-0.1-0.7-0.5-0.6-1l4.3-17.7c-2,1.4-4.6,2.1-7.1,2.1
				c-2.7,0-5.3-0.8-7.5-2.3L237.6,521.7z M232.5,507.9l-1.5-6.1c-0.1-0.4,0.2-0.9,0.6-1c0.3-0.1,0.6,0,0.8,0.3l0.1,0.1v0
				c0,0-0.1-0.1-0.1-0.1l0.1,0.2V507.9z"/>
		</g>
		<path class="st19" d="M229.3,520h23.3l-1.2,10.8c-0.2,2-0.3,2.9-2.9,2.9h-15.1c-2.6,0-2.7-0.9-2.9-2.9L229.3,520z"/>
	</g>
	<text transform="matrix(1 0 0 1 567.7441 389.2929)" class="st18 st20 st21">$</text>
	<g>
		<path class="st8" d="M660.8,473c19.4,0,35.1-15.8,35.1-35.1c0-19.4-15.8-35.1-35.1-35.1c-19.4,0-35.1,15.8-35.1,35.1
			C625.7,457.2,641.5,473,660.8,473z"/>
		<g>
			<path class="st14" d="M660.8,406.7c-17.2,0-31.2,14-31.2,31.2c0,17.2,14,31.2,31.2,31.2c17.2,0,31.2-14,31.2-31.2
				C692,420.6,678,406.7,660.8,406.7z"/>
			<path class="st15" d="M678,463.9c4.5-3,8.1-7,10.6-11.8l-27.8-14.2L678,463.9z"/>
			<path class="st13" d="M688.6,452.1c2.2-4.3,3.4-9.1,3.4-14.2c0-10-4.7-18.9-12-24.6l-19.2,24.6L688.6,452.1z"/>
			<path class="st11" d="M680,413.3c-5.3-4.2-12-6.6-19.2-6.6v31.2L680,413.3z"/>
			<path class="st12" d="M660.8,406.7v31.2L638.6,416C644.2,410.2,652.1,406.7,660.8,406.7z"/>
		</g>
	</g>
	<g>
		<circle class="st8" cx="347.8" cy="236.5" r="27.9"/>
		
			<ellipse transform="matrix(0.301 -0.9536 0.9536 0.301 17.5504 496.9997)" class="st11" cx="347.8" cy="236.5" rx="22.7" ry="22.7"/>
		<path class="st8" d="M347.8,220L347.8,220c0.7,0,1.3,0.6,1.3,1.3v13.9c0,0.7-0.6,1.3-1.3,1.3h0c-0.7,0-1.3-0.6-1.3-1.3v-13.9
			C346.5,220.6,347.1,220,347.8,220z"/>
		<path class="st8" d="M337.4,227.3L337.4,227.3c0.5-0.5,1.3-0.6,1.8-0.1l8.5,7.5c0.5,0.5,0.6,1.3,0.1,1.8l0,0
			c-0.5,0.5-1.3,0.6-1.8,0.1l-8.5-7.5C337,228.6,336.9,227.8,337.4,227.3z"/>
		<path class="st8" d="M347.8,218.7c0.8,0,1.4-0.6,1.4-1.4s-0.6-1.4-1.4-1.4s-1.4,0.6-1.4,1.4S347,218.7,347.8,218.7z"/>
		<path class="st8" d="M369.3,237.1c0,0.8-0.6,1.4-1.4,1.4c-0.8,0-1.4-0.6-1.4-1.4c0-0.8,0.6-1.4,1.4-1.4
			C368.6,235.6,369.3,236.3,369.3,237.1z"/>
		<circle class="st8" cx="348" cy="257.1" r="1.4"/>
		<path class="st8" d="M326.5,237.3c0-0.8,0.6-1.4,1.4-1.4c0.8,0,1.4,0.6,1.4,1.4c0,0.8-0.6,1.4-1.4,1.4
			C327.2,238.7,326.5,238.1,326.5,237.3z"/>
		<path class="st8" d="M347.8,239.9c1.9,0,3.4-1.5,3.4-3.4c0-1.9-1.5-3.4-3.4-3.4c-1.9,0-3.4,1.5-3.4,3.4
			C344.4,238.4,345.9,239.9,347.8,239.9z"/>
	</g>
	<g class="st0">
		<g class="st2">
			<path class="st22" d="M385,398.2v229.3 M459.4,375.2v270.6 M533.9,395.7v228.1"/>
			<path class="st22" d="M553.4,410.4H369.3 M596.3,484.8H326.5 M591.2,559.3H331.6 M514.2,633.7H395.1"/>
		</g>
		<g class="st2">
			<path class="st5" d="M410.2,383.1l44.7,89.5l52.6-87.6c4,1.6,7.9,3.4,11.7,5.3l-59.3,98.9l-6,10l-5.2-10.4l-50.4-100.8
				C402.2,386.1,406.1,384.5,410.2,383.1z"/>
			<path class="st4" d="M454.4,464.6c11.7,0,21.2,9.5,21.2,21.2c0,11.7-9.5,21.2-21.2,21.2c-11.7,0-21.2-9.5-21.2-21.2
				C433.2,474.1,442.7,464.6,454.4,464.6z"/>
		</g>
	</g>
	<g>
		<g>
			
				<rect x="560.8" y="615.3" transform="matrix(0.7128 -0.7013 0.7013 0.7128 -278.3474 588.9174)" class="st23" width="38.5" height="38"/>
			
				<rect x="568" y="626.6" transform="matrix(0.7128 -0.7013 0.7013 0.7128 -278.3485 588.9424)" class="st11" width="24" height="15.6"/>
			
				<rect x="574.8" y="628.5" transform="matrix(0.7128 -0.7013 0.7013 0.7128 -281.5432 587.5547)" class="st23" width="3.8" height="18.2"/>
			
				<rect x="540.2" y="611.2" transform="matrix(0.7129 -0.7013 0.7013 0.7129 -272.6672 575.652)" class="st23" width="52.9" height="19.2"/>
			
				<rect x="547.9" y="616.7" transform="matrix(0.7128 -0.7014 0.7014 0.7128 -272.8727 576.1753)" class="st11" width="38.5" height="9.2"/>
			
				<rect x="558.2" y="619.7" transform="matrix(0.7129 -0.7013 0.7013 0.7129 -277.6682 574.0633)" class="st23" width="8" height="12.9"/>
			
				<rect x="566.9" y="638.3" transform="matrix(0.7129 -0.7013 0.7013 0.7129 -284.0257 602.1555)" class="st23" width="52.9" height="19.2"/>
			<polygon class="st24" points="821.7,831.3 618.9,636.2 581.2,673.3 773,879.2 			"/>
			<path class="st24" d="M564,413.5c-28.1-28.5-65.2-42.9-102.3-42.9v13.9c33.5,0,67,12.9,92.4,38.7c50.2,51,49.5,133.1-1.5,183.3
				c-25.2,24.8-58.1,37.2-90.9,37.2v13.9c36.3,0,72.7-13.7,100.6-41.2C618.8,560.8,619.6,470,564,413.5z M461.7,370.6
				c-36.3,0-72.7,13.7-100.6,41.2c-56.5,55.6-57.2,146.4-1.7,202.9c28.1,28.5,65.2,42.9,102.3,42.9v-13.9c-33.5,0-67-12.9-92.4-38.7
				c-50.2-51-49.5-133.1,1.5-183.3c25.2-24.8,58.1-37.2,90.9-37.2V370.6z"/>
			
				<rect x="573.9" y="641.1" transform="matrix(0.7128 -0.7013 0.7013 0.7128 -283.9424 601.983)" class="st11" width="38.5" height="13.2"/>
			
				<rect x="584.2" y="642.9" transform="matrix(0.7128 -0.7013 0.7013 0.7128 -288.7406 599.9185)" class="st23" width="8" height="19.2"/>
			<polygon class="st25" points="811,841.8 612,643.1 599.6,655.3 795,857.5 			"/>
		</g>
	</g>
	<g>
		<g>
			<path class="st8" d="M28.5,776c0.3,0,0.6-0.1,0.9-0.3c0.3-0.2,0.5-0.4,0.6-0.8c0.2-0.4,0.2-0.8,0.2-1.3c0-0.5-0.1-0.9-0.2-1.3
				c-0.2-0.4-0.4-0.6-0.7-0.8c-0.3-0.2-0.6-0.3-0.9-0.3v-1.3c0.3,0,0.6,0.1,0.8,0.2c0.4,0.2,0.7,0.5,1.1,0.8v-2.7
				c0-0.4,0.1-0.7,0.2-0.9c0.2-0.2,0.4-0.3,0.6-0.3c0.3,0,0.5,0.1,0.7,0.3c0.2,0.2,0.2,0.4,0.2,0.8v8.2c0,0.4-0.1,0.6-0.2,0.8
				c-0.2,0.2-0.4,0.3-0.6,0.3c-0.3,0-0.5-0.1-0.6-0.3c-0.2-0.2-0.3-0.4-0.3-0.8v-0.2c-0.2,0.3-0.5,0.5-0.7,0.7
				c-0.2,0.2-0.5,0.3-0.8,0.4c-0.1,0-0.2,0.1-0.4,0.1V776z M26.7,773.7c0,0.5,0.1,0.9,0.2,1.3c0.2,0.4,0.4,0.6,0.6,0.8
				c0.3,0.2,0.6,0.3,0.9,0.3h0v1.4c-0.2,0-0.4,0-0.6,0c-0.4,0-0.9-0.1-1.2-0.3c-0.4-0.2-0.7-0.5-1-0.8c-0.3-0.3-0.5-0.8-0.6-1.2
				c-0.1-0.5-0.2-1-0.2-1.5c0-1.2,0.3-2.1,0.9-2.7c0.6-0.6,1.3-1,2.2-1c0.2,0,0.4,0,0.6,0v1.3h0c-0.3,0-0.6,0.1-0.9,0.3
				c-0.3,0.2-0.5,0.5-0.6,0.8C26.8,772.8,26.7,773.2,26.7,773.7z"/>
			<path class="st8" d="M37.3,773.1h1.7c0-0.6-0.2-1.1-0.5-1.4c-0.3-0.3-0.7-0.5-1.2-0.5v-1.3h0.1c0.7,0,1.4,0.2,1.9,0.5
				c0.5,0.3,0.9,0.7,1.2,1.2c0.3,0.5,0.4,1,0.4,1.5c0,0.5-0.1,0.8-0.4,0.9c-0.3,0.1-0.6,0.2-1.1,0.2h-2V773.1L37.3,773.1z
				 M37.3,777.4v-1.2c0,0,0.1,0,0.1,0c0.2,0,0.4,0,0.6-0.1c0.2,0,0.4-0.1,0.5-0.2c0.2-0.1,0.3-0.2,0.5-0.4c0.1-0.1,0.3-0.3,0.6-0.5
				c0.1-0.1,0.2-0.1,0.4-0.1c0.2,0,0.3,0.1,0.5,0.2c0.1,0.1,0.2,0.3,0.2,0.4c0,0.2-0.1,0.4-0.2,0.6c-0.1,0.2-0.3,0.4-0.6,0.6
				c-0.3,0.2-0.6,0.4-1,0.5c-0.4,0.1-0.9,0.2-1.4,0.2C37.4,777.4,37.3,777.4,37.3,777.4z M35.6,773.1h1.7v1.1h-1.7
				c0,0.4,0.1,0.8,0.3,1.1c0.2,0.3,0.4,0.6,0.7,0.7c0.2,0.1,0.5,0.2,0.8,0.2v1.2c-1.1,0-2-0.4-2.6-1c-0.7-0.7-1-1.6-1-2.8
				c0-0.6,0.1-1.1,0.2-1.5c0.2-0.5,0.4-0.9,0.7-1.2c0.3-0.3,0.7-0.6,1.2-0.8c0.4-0.2,0.9-0.3,1.5-0.3v1.3h0c-0.5,0-0.8,0.2-1.1,0.5
				C35.8,772,35.6,772.4,35.6,773.1z"/>
			<path class="st8" d="M48.3,775c0,0.5-0.1,1-0.4,1.3c-0.3,0.4-0.6,0.6-1.1,0.8c-0.5,0.2-1.1,0.3-1.8,0.3c-0.7,0-1.2-0.1-1.7-0.3
				c-0.5-0.2-0.8-0.5-1.1-0.8c-0.2-0.3-0.3-0.6-0.3-0.9c0-0.2,0.1-0.4,0.2-0.5c0.1-0.1,0.3-0.2,0.6-0.2c0.2,0,0.3,0,0.5,0.1
				c0.1,0.1,0.2,0.2,0.3,0.4c0.2,0.3,0.4,0.6,0.7,0.7c0.3,0.2,0.6,0.2,1.1,0.2c0.4,0,0.7-0.1,0.9-0.2c0.2-0.2,0.4-0.4,0.4-0.6
				c0-0.3-0.1-0.6-0.4-0.7c-0.2-0.1-0.7-0.3-1.2-0.4c-0.6-0.2-1.2-0.3-1.6-0.5c-0.4-0.2-0.7-0.4-1-0.7c-0.2-0.3-0.4-0.6-0.4-1.1
				c0-0.4,0.1-0.7,0.3-1.1c0.2-0.3,0.6-0.6,1-0.8c0.4-0.2,1-0.3,1.6-0.3c0.5,0,0.9,0,1.3,0.1c0.4,0.1,0.7,0.2,1,0.4
				c0.3,0.2,0.5,0.4,0.6,0.6c0.1,0.2,0.2,0.4,0.2,0.6c0,0.2-0.1,0.4-0.2,0.5c-0.1,0.1-0.3,0.2-0.6,0.2c-0.2,0-0.4-0.1-0.5-0.2
				c-0.1-0.1-0.3-0.3-0.5-0.5c-0.1-0.2-0.3-0.3-0.5-0.4c-0.2-0.1-0.5-0.2-0.8-0.2c-0.3,0-0.6,0.1-0.8,0.2c-0.2,0.1-0.3,0.3-0.3,0.5
				c0,0.2,0.1,0.4,0.2,0.5c0.2,0.1,0.4,0.2,0.7,0.3c0.3,0.1,0.7,0.2,1.1,0.3c0.6,0.1,1,0.3,1.4,0.5c0.4,0.2,0.6,0.4,0.8,0.7
				C48.2,774.4,48.3,774.7,48.3,775z"/>
			<path class="st8" d="M51.7,770.9v5.4c0,0.4-0.1,0.7-0.3,0.8c-0.2,0.2-0.4,0.3-0.7,0.3c-0.3,0-0.5-0.1-0.7-0.3
				c-0.2-0.2-0.3-0.5-0.3-0.8V771c0-0.4,0.1-0.6,0.3-0.8c0.2-0.2,0.4-0.3,0.7-0.3c0.3,0,0.5,0.1,0.7,0.3
				C51.6,770.3,51.7,770.6,51.7,770.9L51.7,770.9z M50.8,769c-0.3,0-0.5-0.1-0.7-0.2c-0.2-0.2-0.3-0.4-0.3-0.7
				c0-0.3,0.1-0.5,0.3-0.7c0.2-0.2,0.4-0.3,0.7-0.3c0.2,0,0.5,0.1,0.6,0.2c0.2,0.2,0.3,0.4,0.3,0.7c0,0.3-0.1,0.5-0.3,0.7
				C51.3,768.9,51.1,769,50.8,769z"/>
			<path class="st8" d="M56.9,775.9c0.3,0,0.6-0.1,0.9-0.2c0.3-0.2,0.5-0.4,0.7-0.8c0.2-0.3,0.3-0.7,0.3-1.2c0-0.8-0.2-1.4-0.5-1.8
				c-0.3-0.4-0.8-0.6-1.3-0.6v-1.3c0.3,0,0.5,0.1,0.8,0.3c0.4,0.2,0.7,0.5,1.1,1v-0.3c0-0.3,0.1-0.6,0.2-0.7
				c0.2-0.2,0.4-0.3,0.6-0.3c0.4,0,0.6,0.1,0.7,0.4c0.1,0.2,0.2,0.6,0.2,1v5.4c0,0.6-0.1,1.2-0.2,1.6c-0.1,0.4-0.3,0.8-0.6,1.1
				c-0.3,0.3-0.7,0.5-1.1,0.6c-0.4,0.1-1,0.2-1.6,0.2v-1.3c0.4,0,0.7-0.1,1-0.2c0.3-0.1,0.5-0.3,0.6-0.6c0.1-0.2,0.2-0.5,0.2-0.8
				c0-0.3,0-0.7,0-1.3c-0.3,0.4-0.6,0.7-1,0.9c-0.2,0.1-0.5,0.2-0.8,0.3V775.9z M55.1,773.6c0,0.8,0.2,1.3,0.5,1.7
				c0.3,0.4,0.8,0.6,1.3,0.6h0v1.3c-0.2,0-0.4,0-0.6,0c-0.6,0-1.2-0.2-1.6-0.5c-0.5-0.3-0.8-0.8-1.1-1.3c-0.3-0.6-0.4-1.2-0.4-2
				c0-0.6,0.1-1.1,0.2-1.5c0.2-0.5,0.4-0.8,0.7-1.1c0.3-0.3,0.6-0.5,1-0.7c0.4-0.2,0.8-0.2,1.2-0.2c0.2,0,0.4,0,0.6,0v1.3h0
				c-0.5,0-1,0.2-1.3,0.6C55.3,772.3,55.1,772.9,55.1,773.6L55.1,773.6z M56.9,778.9v1.3l-0.1,0c-0.6,0-1.2-0.1-1.7-0.3
				c-0.5-0.2-0.9-0.4-1.2-0.7c-0.3-0.3-0.4-0.6-0.4-0.9c0-0.2,0.1-0.4,0.2-0.6c0.2-0.1,0.3-0.2,0.6-0.2c0.3,0,0.5,0.1,0.7,0.4
				c0.1,0.1,0.2,0.2,0.3,0.4c0.1,0.1,0.2,0.2,0.4,0.3c0.1,0.1,0.3,0.2,0.5,0.2c0.2,0,0.4,0.1,0.6,0.1L56.9,778.9z"/>
			<path class="st8" d="M64.1,770.9v0.2c0.3-0.4,0.7-0.8,1.1-1c0.4-0.2,0.8-0.3,1.3-0.3c0.5,0,0.9,0.1,1.3,0.3
				c0.4,0.2,0.7,0.5,0.9,0.9c0.1,0.2,0.2,0.5,0.2,0.7c0,0.3,0.1,0.6,0.1,1v3.5c0,0.4-0.1,0.7-0.3,0.8c-0.2,0.2-0.4,0.3-0.7,0.3
				c-0.3,0-0.5-0.1-0.7-0.3c-0.2-0.2-0.3-0.5-0.3-0.8v-3.1c0-0.6-0.1-1.1-0.3-1.4c-0.2-0.3-0.5-0.5-1-0.5c-0.3,0-0.6,0.1-0.9,0.3
				c-0.3,0.2-0.5,0.5-0.6,0.8c-0.1,0.3-0.1,0.8-0.1,1.6v2.3c0,0.4-0.1,0.7-0.3,0.8c-0.2,0.2-0.4,0.3-0.7,0.3c-0.3,0-0.5-0.1-0.7-0.3
				c-0.2-0.2-0.3-0.5-0.3-0.8v-5.4c0-0.4,0.1-0.6,0.2-0.8c0.2-0.2,0.4-0.3,0.6-0.3c0.2,0,0.3,0,0.4,0.1c0.1,0.1,0.2,0.2,0.3,0.3
				C64,770.5,64.1,770.7,64.1,770.9z"/>
			<path class="st8" d="M74.1,773.1h1.7c0-0.6-0.2-1.1-0.5-1.4c-0.3-0.3-0.7-0.5-1.2-0.5v-1.3h0.1c0.7,0,1.4,0.2,1.9,0.5
				c0.5,0.3,0.9,0.7,1.2,1.2c0.3,0.5,0.4,1,0.4,1.5c0,0.5-0.1,0.8-0.4,0.9c-0.3,0.1-0.6,0.2-1.1,0.2h-2V773.1L74.1,773.1z
				 M74.1,777.4v-1.2c0,0,0.1,0,0.1,0c0.2,0,0.4,0,0.6-0.1c0.2,0,0.4-0.1,0.5-0.2c0.2-0.1,0.3-0.2,0.5-0.4c0.1-0.1,0.3-0.3,0.6-0.5
				c0.1-0.1,0.2-0.1,0.4-0.1c0.2,0,0.3,0.1,0.5,0.2c0.1,0.1,0.2,0.3,0.2,0.4c0,0.2-0.1,0.4-0.2,0.6c-0.1,0.2-0.3,0.4-0.6,0.6
				c-0.3,0.2-0.6,0.4-1,0.5c-0.4,0.1-0.9,0.2-1.4,0.2C74.2,777.4,74.1,777.4,74.1,777.4z M72.4,773.1h1.7v1.1h-1.7
				c0,0.4,0.1,0.8,0.3,1.1c0.2,0.3,0.4,0.6,0.7,0.7c0.2,0.1,0.5,0.2,0.8,0.2v1.2c-1.1,0-2-0.4-2.6-1c-0.7-0.7-1-1.6-1-2.8
				c0-0.6,0.1-1.1,0.2-1.5c0.2-0.5,0.4-0.9,0.7-1.2c0.3-0.3,0.7-0.6,1.2-0.8c0.4-0.2,0.9-0.3,1.5-0.3v1.3h0c-0.5,0-0.8,0.2-1.1,0.5
				C72.6,772,72.4,772.4,72.4,773.1z"/>
			<path class="st8" d="M82.3,776c0.3,0,0.6-0.1,0.9-0.3c0.3-0.2,0.5-0.4,0.6-0.8c0.2-0.4,0.2-0.8,0.2-1.3c0-0.5-0.1-0.9-0.2-1.3
				c-0.2-0.4-0.4-0.6-0.7-0.8c-0.3-0.2-0.6-0.3-0.9-0.3v-1.3c0.3,0,0.6,0.1,0.8,0.2c0.4,0.2,0.7,0.5,1.1,0.8v-2.7
				c0-0.4,0.1-0.7,0.2-0.9c0.2-0.2,0.4-0.3,0.7-0.3c0.3,0,0.5,0.1,0.6,0.3c0.2,0.2,0.2,0.4,0.2,0.8v8.2c0,0.4-0.1,0.6-0.2,0.8
				c-0.2,0.2-0.4,0.3-0.6,0.3c-0.3,0-0.5-0.1-0.6-0.3c-0.2-0.2-0.2-0.4-0.2-0.8v-0.2c-0.3,0.3-0.5,0.5-0.7,0.7
				c-0.2,0.2-0.5,0.3-0.8,0.4c-0.1,0-0.2,0.1-0.4,0.1V776z M80.6,773.7c0,0.5,0.1,0.9,0.2,1.3c0.2,0.4,0.4,0.6,0.6,0.8
				c0.3,0.2,0.6,0.3,0.9,0.3h0v1.4c-0.2,0-0.4,0-0.6,0c-0.4,0-0.9-0.1-1.2-0.3c-0.4-0.2-0.7-0.5-1-0.8c-0.3-0.3-0.5-0.8-0.6-1.2
				c-0.1-0.5-0.2-1-0.2-1.5c0-1.2,0.3-2.1,0.9-2.7c0.6-0.6,1.3-1,2.2-1c0.2,0,0.4,0,0.6,0v1.3h0c-0.3,0-0.6,0.1-0.9,0.3
				c-0.3,0.2-0.5,0.5-0.6,0.8C80.6,772.8,80.6,773.2,80.6,773.7z"/>
			<path class="st8" d="M94.9,776L94.9,776c0.5,0,0.9-0.2,1.3-0.6c0.3-0.4,0.5-1,0.5-1.7c0-0.5-0.1-0.9-0.2-1.3
				c-0.1-0.4-0.3-0.6-0.6-0.8c-0.3-0.2-0.6-0.3-0.9-0.3l-0.1,0v-1.3c0.2,0,0.4,0,0.6,0c0.6,0,1.2,0.1,1.6,0.4
				c0.5,0.3,0.8,0.7,1.1,1.3c0.3,0.6,0.4,1.2,0.4,2c0,0.6-0.1,1.1-0.2,1.6c-0.1,0.5-0.4,0.9-0.6,1.2c-0.3,0.3-0.6,0.6-1,0.8
				c-0.4,0.2-0.8,0.3-1.3,0.3c-0.2,0-0.4,0-0.5,0V776z M93.1,773.7c0,0.7,0.2,1.3,0.5,1.7c0.3,0.4,0.8,0.6,1.3,0.6v1.4
				c-0.1,0-0.2,0-0.3-0.1c-0.3-0.1-0.5-0.2-0.6-0.3c-0.2-0.1-0.3-0.2-0.5-0.3c-0.1-0.1-0.3-0.3-0.5-0.5v0.2c0,0.4-0.1,0.6-0.3,0.8
				c-0.2,0.2-0.4,0.3-0.6,0.3c-0.3,0-0.5-0.1-0.6-0.3c-0.2-0.2-0.2-0.4-0.2-0.8v-8.1c0-0.4,0.1-0.7,0.2-0.9c0.2-0.2,0.4-0.3,0.6-0.3
				c0.3,0,0.5,0.1,0.7,0.3c0.2,0.2,0.2,0.4,0.2,0.8v2.8c0.3-0.4,0.7-0.6,1.1-0.8c0.2-0.1,0.5-0.2,0.8-0.3v1.3
				c-0.3,0-0.6,0.1-0.9,0.3c-0.3,0.2-0.5,0.5-0.7,0.8C93.2,772.8,93.1,773.2,93.1,773.7z"/>
			<path class="st8" d="M101.6,777.7l0.2-0.4l-2.3-5.8c-0.1-0.3-0.2-0.6-0.2-0.7c0-0.2,0-0.3,0.1-0.4c0.1-0.1,0.2-0.2,0.3-0.3
				c0.1-0.1,0.3-0.1,0.4-0.1c0.3,0,0.5,0.1,0.6,0.3c0.1,0.2,0.3,0.4,0.4,0.7l1.6,4.6l1.5-4.3c0.1-0.3,0.2-0.6,0.3-0.8
				c0.1-0.2,0.2-0.3,0.3-0.4c0.1-0.1,0.3-0.1,0.5-0.1c0.1,0,0.3,0,0.4,0.1c0.1,0.1,0.2,0.2,0.3,0.3c0.1,0.1,0.1,0.3,0.1,0.4
				c0,0.1,0,0.2-0.1,0.4c0,0.2-0.1,0.3-0.2,0.5l-2.4,6.4c-0.2,0.6-0.4,1-0.6,1.3c-0.2,0.3-0.5,0.6-0.8,0.7c-0.3,0.2-0.8,0.3-1.3,0.3
				c-0.5,0-1-0.1-1.2-0.2c-0.3-0.1-0.4-0.3-0.4-0.6c0-0.2,0.1-0.4,0.2-0.5c0.1-0.1,0.3-0.2,0.6-0.2c0.1,0,0.2,0,0.3,0
				c0.1,0,0.2,0,0.3,0c0.2,0,0.4,0,0.5-0.1c0.1-0.1,0.2-0.2,0.3-0.3C101.4,778.2,101.5,778,101.6,777.7z"/>
		</g>
		<g>
			<path class="st8" d="M143.5,767.5h0.6v-0.7c0-0.7,0.1-1.3,0.3-1.7c0.2-0.4,0.5-0.7,0.9-0.9c0.4-0.2,1-0.3,1.8-0.3
				c1.4,0,2,0.3,2,1c0,0.2-0.1,0.4-0.2,0.6c-0.1,0.2-0.3,0.2-0.5,0.2c-0.1,0-0.2,0-0.5-0.1c-0.2,0-0.4,0-0.6,0
				c-0.4,0-0.7,0.1-0.8,0.4c-0.1,0.2-0.2,0.6-0.2,1.1v0.6h0.6c0.9,0,1.3,0.3,1.3,0.8c0,0.4-0.1,0.6-0.4,0.7c-0.2,0.1-0.6,0.2-1,0.2
				h-0.6v6.1c0,0.5-0.1,0.8-0.3,1.1c-0.2,0.2-0.5,0.4-0.8,0.4c-0.3,0-0.6-0.1-0.8-0.4c-0.2-0.2-0.3-0.6-0.3-1.1v-6.1h-0.6
				c-0.3,0-0.6-0.1-0.8-0.2c-0.2-0.2-0.3-0.4-0.3-0.6C142.3,767.8,142.7,767.5,143.5,767.5z"/>
			<path class="st8" d="M151.8,773.4v1.9c0,0.5-0.1,0.8-0.3,1.1c-0.2,0.2-0.5,0.4-0.8,0.4c-0.3,0-0.6-0.1-0.8-0.4
				c-0.2-0.2-0.3-0.6-0.3-1.1v-6.5c0-1,0.4-1.6,1.1-1.6c0.4,0,0.7,0.1,0.8,0.4c0.2,0.2,0.3,0.6,0.3,1.1c0.3-0.5,0.6-0.8,0.9-1.1
				c0.3-0.2,0.7-0.4,1.2-0.4c0.5,0,1,0.1,1.4,0.4c0.5,0.2,0.7,0.6,0.7,1c0,0.3-0.1,0.5-0.3,0.7c-0.2,0.2-0.4,0.3-0.6,0.3
				c-0.1,0-0.3-0.1-0.6-0.2c-0.3-0.1-0.6-0.2-0.9-0.2c-0.3,0-0.6,0.1-0.8,0.3c-0.2,0.2-0.4,0.4-0.5,0.8c-0.1,0.4-0.2,0.8-0.2,1.3
				C151.8,772.1,151.8,772.7,151.8,773.4z"/>
			<path class="st8" d="M160.7,771.3h2.1c-0.1-0.8-0.3-1.4-0.6-1.8c-0.4-0.4-0.9-0.6-1.5-0.6v-1.6l0.1,0c0.9,0,1.7,0.2,2.3,0.6
				c0.7,0.4,1.1,0.9,1.5,1.5c0.3,0.6,0.5,1.2,0.5,1.9c0,0.6-0.2,1-0.5,1.1c-0.3,0.2-0.8,0.3-1.4,0.3h-2.4V771.3L160.7,771.3z
				 M160.7,776.8v-1.5c0.1,0,0.1,0,0.2,0c0.3,0,0.5,0,0.8-0.1c0.2-0.1,0.5-0.2,0.7-0.3c0.2-0.1,0.4-0.3,0.6-0.4
				c0.2-0.2,0.4-0.4,0.7-0.6c0.1-0.1,0.3-0.2,0.5-0.2c0.2,0,0.4,0.1,0.6,0.2c0.1,0.1,0.2,0.3,0.2,0.6c0,0.2-0.1,0.5-0.2,0.7
				c-0.2,0.3-0.4,0.6-0.7,0.8c-0.3,0.3-0.8,0.5-1.3,0.6c-0.5,0.2-1.1,0.3-1.7,0.3C160.9,776.8,160.8,776.8,160.7,776.8z
				 M158.6,771.3h2.1v1.3h-2.1c0,0.5,0.1,1,0.3,1.4c0.2,0.4,0.5,0.7,0.8,0.9c0.3,0.2,0.6,0.3,1,0.3v1.5c-1.4,0-2.5-0.5-3.2-1.3
				c-0.8-0.8-1.2-2-1.2-3.5c0-0.7,0.1-1.3,0.3-1.9c0.2-0.6,0.5-1.1,0.9-1.5c0.4-0.4,0.9-0.7,1.4-1c0.5-0.2,1.2-0.3,1.8-0.3v1.6h0
				c-0.6,0-1.1,0.2-1.4,0.6C158.9,769.9,158.7,770.5,158.6,771.3z"/>
			<path class="st8" d="M171,771.3h2.1c-0.1-0.8-0.3-1.4-0.6-1.8c-0.4-0.4-0.9-0.6-1.5-0.6v-1.6h0.1c0.9,0,1.7,0.2,2.3,0.6
				c0.6,0.4,1.1,0.9,1.5,1.5c0.3,0.6,0.5,1.2,0.5,1.9c0,0.6-0.2,1-0.5,1.1c-0.3,0.2-0.8,0.3-1.4,0.3H171V771.3L171,771.3z
				 M171,776.8v-1.5c0.1,0,0.1,0,0.2,0c0.3,0,0.5,0,0.8-0.1c0.2-0.1,0.5-0.2,0.7-0.3c0.2-0.1,0.4-0.3,0.6-0.4
				c0.2-0.2,0.4-0.4,0.7-0.6c0.1-0.1,0.3-0.2,0.5-0.2c0.2,0,0.4,0.1,0.6,0.2c0.1,0.1,0.2,0.3,0.2,0.6c0,0.2-0.1,0.5-0.2,0.7
				c-0.2,0.3-0.4,0.6-0.7,0.8c-0.3,0.3-0.7,0.5-1.2,0.6c-0.5,0.2-1.1,0.3-1.7,0.3C171.2,776.8,171.1,776.8,171,776.8z M168.9,771.3
				h2.1v1.3h-2.1c0,0.5,0.1,1,0.3,1.4c0.2,0.4,0.5,0.7,0.8,0.9c0.3,0.2,0.6,0.3,1,0.3v1.5c-1.4,0-2.5-0.5-3.2-1.3
				c-0.8-0.8-1.2-2-1.2-3.5c0-0.7,0.1-1.3,0.3-1.9c0.2-0.6,0.5-1.1,0.9-1.5c0.4-0.4,0.9-0.7,1.4-1c0.6-0.2,1.2-0.3,1.8-0.3v1.6h0
				c-0.6,0-1.1,0.2-1.4,0.6C169.3,769.9,169,770.5,168.9,771.3z"/>
			<path class="st8" d="M183.8,772c0-0.6-0.1-1.1-0.3-1.6c-0.2-0.4-0.4-0.8-0.8-1c-0.3-0.2-0.7-0.4-1.1-0.4l-0.1,0v-1.7
				c0.2,0,0.4-0.1,0.6-0.1c0.7,0,1.4,0.2,2,0.6c0.6,0.4,1.1,0.9,1.4,1.6c0.3,0.7,0.5,1.5,0.5,2.5c0,0.7-0.1,1.4-0.3,2
				c-0.2,0.6-0.5,1.1-0.8,1.5c-0.4,0.4-0.8,0.7-1.2,0.9c-0.5,0.2-1,0.3-1.5,0.3c-0.2,0-0.4,0-0.6,0V775l0.1,0c0.4,0,0.7-0.1,1.1-0.3
				c0.3-0.2,0.6-0.6,0.8-1C183.7,773.2,183.8,772.6,183.8,772z M181.6,769.1c-0.6,0-1.1,0.3-1.6,0.8c-0.4,0.5-0.7,1.2-0.7,2.2
				c0,0.9,0.2,1.6,0.7,2.2c0.4,0.5,0.9,0.8,1.6,0.8v1.7c-0.4-0.1-0.7-0.2-1-0.4c-0.5-0.3-0.9-0.7-1.3-1.2v3.5c0,1-0.4,1.5-1.1,1.5
				c-0.4,0-0.7-0.1-0.9-0.4c-0.1-0.3-0.2-0.7-0.2-1.2v-10c0-0.4,0.1-0.8,0.3-1c0.2-0.2,0.5-0.3,0.8-0.3c0.3,0,0.6,0.1,0.8,0.3
				c0.2,0.2,0.3,0.5,0.3,1v0.3c0.4-0.5,0.9-0.9,1.4-1.2c0.3-0.2,0.6-0.3,1-0.3V769.1z"/>
			<path class="st8" d="M190.3,768.6v6.7c0,0.5-0.1,0.8-0.3,1.1c-0.2,0.2-0.5,0.4-0.8,0.4c-0.3,0-0.6-0.1-0.8-0.4
				c-0.2-0.2-0.3-0.6-0.3-1v-6.6c0-0.5,0.1-0.8,0.3-1c0.2-0.2,0.5-0.4,0.8-0.4c0.3,0,0.6,0.1,0.8,0.4
				C190.2,767.9,190.3,768.2,190.3,768.6L190.3,768.6z M189.2,766.2c-0.3,0-0.6-0.1-0.8-0.3c-0.2-0.2-0.3-0.5-0.3-0.8
				c0-0.3,0.1-0.6,0.4-0.8c0.2-0.2,0.5-0.3,0.8-0.3c0.3,0,0.6,0.1,0.8,0.3c0.2,0.2,0.3,0.5,0.3,0.8c0,0.4-0.1,0.6-0.3,0.8
				C189.8,766.1,189.5,766.2,189.2,766.2z"/>
			<path class="st8" d="M198.5,775.7l-2.1-3.4l-1.3,1.2v1.8c0,0.4-0.1,0.8-0.3,1c-0.2,0.2-0.5,0.4-0.8,0.4c-0.4,0-0.6-0.1-0.8-0.4
				c-0.2-0.2-0.3-0.6-0.3-1.1v-9.9c0-0.5,0.1-0.9,0.3-1.2c0.2-0.3,0.5-0.4,0.9-0.4c0.4,0,0.6,0.1,0.8,0.4c0.2,0.2,0.3,0.6,0.3,1.1
				v5.6l2.6-2.7c0.3-0.3,0.6-0.6,0.7-0.7c0.2-0.1,0.4-0.2,0.6-0.2c0.3,0,0.5,0.1,0.7,0.3c0.2,0.2,0.3,0.4,0.3,0.7
				c0,0.3-0.3,0.8-0.9,1.4l-1.2,1.1l2.4,3.7c0.2,0.3,0.3,0.5,0.4,0.6c0.1,0.1,0.1,0.3,0.1,0.4c0,0.4-0.1,0.7-0.3,0.9
				c-0.2,0.2-0.5,0.3-0.8,0.3c-0.3,0-0.5-0.1-0.7-0.2C199,776.4,198.8,776.1,198.5,775.7z"/>
			<path class="st8" d="M204.3,776.8c-0.4,0-0.7-0.1-0.9-0.3c-0.3-0.2-0.4-0.5-0.4-1c0-0.3,0.1-0.6,0.4-0.9c0.2-0.2,0.5-0.4,0.9-0.4
				c0.4,0,0.7,0.1,0.9,0.4c0.3,0.2,0.4,0.5,0.4,0.9c0,0.4-0.1,0.7-0.4,1C204.9,776.7,204.6,776.8,204.3,776.8z"/>
			<path class="st8" d="M216.5,773.9c0,0.3-0.1,0.6-0.3,0.9c-0.2,0.3-0.4,0.6-0.8,0.9c-0.4,0.3-0.8,0.5-1.3,0.7
				c-0.5,0.2-1.2,0.3-1.8,0.3c-1.4,0-2.6-0.4-3.4-1.3c-0.8-0.8-1.2-2-1.2-3.4c0-1,0.2-1.8,0.6-2.5c0.4-0.7,0.9-1.3,1.6-1.7
				c0.7-0.4,1.5-0.6,2.5-0.6c0.6,0,1.2,0.1,1.7,0.3c0.5,0.2,0.9,0.4,1.3,0.7c0.3,0.3,0.6,0.6,0.8,0.9c0.2,0.3,0.3,0.6,0.3,0.9
				c0,0.3-0.1,0.5-0.3,0.7c-0.2,0.2-0.5,0.3-0.8,0.3c-0.2,0-0.4,0-0.5-0.1c-0.1-0.1-0.3-0.3-0.4-0.5c-0.3-0.4-0.6-0.8-0.9-1
				c-0.3-0.2-0.7-0.3-1.2-0.3c-0.7,0-1.2,0.3-1.7,0.8c-0.4,0.5-0.6,1.3-0.6,2.2c0,0.4,0.1,0.8,0.2,1.2c0.1,0.4,0.3,0.7,0.5,0.9
				c0.2,0.3,0.5,0.5,0.7,0.6c0.3,0.1,0.6,0.2,1,0.2c0.5,0,0.9-0.1,1.2-0.3c0.3-0.2,0.6-0.5,0.9-1c0.1-0.3,0.3-0.5,0.5-0.6
				c0.2-0.1,0.4-0.2,0.6-0.2c0.3,0,0.5,0.1,0.7,0.3C216.4,773.4,216.5,773.6,216.5,773.9z"/>
			<path class="st8" d="M224.9,772c0-0.9-0.2-1.7-0.6-2.2c-0.4-0.5-1-0.8-1.7-0.8v-1.7c0.7,0,1.3,0.1,1.9,0.3c0.6,0.2,1.1,0.5,1.5,1
				c0.4,0.4,0.7,0.9,0.9,1.5c0.2,0.6,0.3,1.2,0.3,1.9c0,0.7-0.1,1.3-0.3,1.9c-0.2,0.6-0.5,1.1-0.9,1.5c-0.4,0.4-0.9,0.7-1.5,1
				c-0.6,0.2-1.2,0.3-1.9,0.3V775c0.7,0,1.3-0.3,1.7-0.8C224.7,773.7,224.9,773,224.9,772z M222.6,769L222.6,769
				c-0.5,0-0.9,0.1-1.2,0.4c-0.3,0.2-0.6,0.6-0.8,1c-0.2,0.5-0.3,1-0.3,1.6c0,0.6,0.1,1.1,0.3,1.6c0.2,0.5,0.4,0.8,0.8,1
				c0.3,0.2,0.7,0.4,1.2,0.4h0v1.7h0c-0.7,0-1.3-0.1-1.9-0.3c-0.6-0.2-1-0.5-1.5-1c-0.4-0.4-0.7-0.9-0.9-1.5
				c-0.2-0.6-0.3-1.2-0.3-1.9c0-0.7,0.1-1.3,0.3-1.9c0.2-0.6,0.5-1.1,0.9-1.5c0.4-0.4,0.9-0.7,1.5-1c0.6-0.2,1.2-0.3,1.9-0.3h0V769z
				"/>
			<path class="st8" d="M236.8,772.2v3.1c0,0.5-0.1,0.9-0.3,1.1c-0.2,0.2-0.5,0.4-0.9,0.4c-0.4,0-0.6-0.1-0.9-0.4
				c-0.2-0.2-0.3-0.6-0.3-1.1v-3.7c0-0.6,0-1-0.1-1.4c0-0.3-0.1-0.6-0.3-0.8c-0.2-0.2-0.5-0.3-0.8-0.3c-0.8,0-1.3,0.3-1.5,0.8
				c-0.2,0.5-0.4,1.3-0.4,2.2v3.1c0,0.5-0.1,0.8-0.3,1.1c-0.2,0.2-0.5,0.4-0.9,0.4c-0.4,0-0.6-0.1-0.9-0.4c-0.2-0.2-0.3-0.6-0.3-1.1
				v-6.6c0-0.4,0.1-0.8,0.3-1c0.2-0.2,0.5-0.3,0.8-0.3c0.3,0,0.6,0.1,0.8,0.3c0.2,0.2,0.3,0.5,0.3,0.9v0.2c0.4-0.5,0.8-0.8,1.3-1.1
				c0.5-0.2,1-0.3,1.5-0.3c0.6,0,1.1,0.1,1.5,0.3c0.4,0.2,0.8,0.6,1,1.1c0.4-0.5,0.8-0.8,1.3-1.1c0.4-0.2,0.9-0.3,1.5-0.3
				c0.6,0,1.2,0.1,1.6,0.4c0.5,0.3,0.8,0.6,1,1.1c0.2,0.4,0.3,1.1,0.3,2v4.5c0,0.5-0.1,0.9-0.3,1.1c-0.2,0.2-0.5,0.4-0.9,0.4
				c-0.3,0-0.6-0.1-0.9-0.4c-0.2-0.2-0.3-0.6-0.3-1.1v-3.9c0-0.5,0-0.9-0.1-1.2c0-0.3-0.2-0.6-0.3-0.8c-0.2-0.2-0.5-0.3-0.9-0.3
				c-0.3,0-0.6,0.1-0.9,0.3c-0.3,0.2-0.5,0.4-0.6,0.7C236.9,770.5,236.8,771.2,236.8,772.2z"/>
			<path class="st8" d="M125.2,761.3c0-0.2-0.1-0.3-0.1-0.4c0.8-0.1,1.3-1,0.9-1.7c-0.2-0.4-0.6-0.6-1-0.6h-0.1
				c-0.4,0-0.7,0.2-0.9,0.5c-0.5,0.6-0.1,1.6,0.7,1.8c0,0.2,0.1,0.3,0.1,0.5c-1.2,0.1-2.4,0.3-3.3,1c0.1,0.3,0.2,0.6,0.3,0.9
				c2-0.9,4.2-0.7,6.3-0.5c0.1-0.3,0.1-0.6,0.2-0.8C127.2,761.5,126.2,761.3,125.2,761.3z"/>
			<path class="st8" d="M136.9,764.5c-0.3,0.2-0.4,0.5-0.4,0.9c-0.4,0.3-0.2,0.8-0.2,1.3c-0.1,0.2-0.4,0.3-0.6,0.4
				c-0.3-0.4-0.6-0.8-0.9-1.2l0,0c-0.4-0.4-0.8-0.7-1.3-1c-0.4,0.4-0.7,0.8-1.1,1.2c0.7,0.8,1.3,1.6,1.9,2.5c0.4,0.7,0.7,1.4,1,2.1
				c0.6-0.3,1.2-0.6,1.8-0.9c-0.3-0.7-0.7-1.4-1-2.1c0.3-0.1,0.6-0.3,0.7-0.6c0-0.4-0.1-0.8,0.2-1.1c0.5,0.3,1.1,0,1.2-0.6
				C138.1,764.6,137.4,764.2,136.9,764.5z"/>
			<path class="st8" d="M132.3,769.3c-0.1,1-1,1.8-2,1.7v3.8c1.8-0.5,3.5-1.2,5.1-2.1c0,0-0.3-1.9-1.7-3.9c-0.8-1.3-1.6-2.5-2.7-3.5
				c-0.2-0.2-0.5-0.4-0.7-0.6v2.2c0.2,0,0.5,0.1,0.7,0.1C131.9,767.3,132.5,768.4,132.3,769.3z M130.3,771L130.3,771
				c-0.6,0-1.1-0.2-1.5-0.6c-0.3-0.3-0.5-0.7-0.5-1.2c-0.1-1,0.6-2,1.5-2.2c0.2-0.1,0.4-0.1,0.5-0.1v-2.2c-1.2-0.8-2.6-1.3-4-1.3
				c-1.8,0-3.6,0.2-5.3,0.8v2.1c0.3,0,0.6,0,0.9,0.1c0.3,0.1,0.7,0.2,0.9,0.4c0.6,0.4,1.1,1.1,1.3,1.8c0.3,0.9,0.1,1.9-0.4,2.7
				c-0.4,0.6-0.9,1-1.6,1.2c-0.4,0.1-0.7,0.2-1.1,0.2v2.8l0.1,0c2.1,0.1,4.2,0.1,6.2-0.2c1-0.1,2-0.3,3-0.6V771z M121,764.1v2.1
				c-0.5,0-1.1,0.1-1.5,0.4c-1,0.5-1.7,1.6-1.7,2.7c-0.1,0.9,0.3,1.8,0.9,2.4c0.6,0.7,1.5,1,2.4,1v2.8c-2.1-0.1-4.1-0.6-6.1-1.1
				c-0.4-1.9-0.4-3.9,0.4-5.6c0.8-2,2.5-3.5,4.5-4.3C120.2,764.4,120.6,764.3,121,764.1z"/>
			<path class="st8" d="M115.3,766c-0.8,0.5-1.5,1.2-2.1,2c-0.2-0.3-0.2-0.7-0.4-1c-0.1-0.2-0.3-0.1-0.5-0.1c-0.2,0-0.4,0-0.6-0.1
				c0.2-0.3,0.2-0.9-0.2-1.1c-0.4-0.3-1,0-1.1,0.4c-0.2,0.5,0.4,1,0.9,0.9c0.3,0.4,0.8,0.3,1.2,0.3c0.2,0.3,0.3,0.7,0.6,1
				c-0.4,0.9-0.7,1.9-0.7,2.8c0.6,0.2,1.1,0.5,1.7,0.7c0-0.6,0.1-1.2,0.2-1.8c0.2-1.3,1-2.5,1.9-3.4
				C115.8,766.4,115.6,766.2,115.3,766z"/>
			<path class="st8" d="M128.7,776c-2.1,0.5-4.3,0.6-6.4,0.5c-1.5-0.1-2.9-0.2-4.3-0.5c-1-0.2-2-0.5-3-0.8c0.2,1.3,0.7,2.5,1.4,3.5
				c0.9,1.2,2,2.3,3.4,2.8c1.1,0.3,2.3,0.6,4.3,0.6h0.2l0.2,0c1.9,0,3.8-0.3,5.4-1c1.1-0.5,2.1-1.1,3-1.9c0.7-0.7,1.3-1.6,1.7-2.5
				c0.4-0.9,0.7-2.5,0.7-3.3C133.3,774.6,131,775.6,128.7,776z"/>
		</g>
	</g>
	<g>
		<rect x="240.5" y="357.4" class="st19" width="34.9" height="1.1"/>
		<rect x="240.5" y="319.6" class="st19" width="6.2" height="37.9"/>
		<rect x="247.7" y="338.6" class="st19" width="6.2" height="18.9"/>
		<rect x="254.9" y="347.8" class="st19" width="6.2" height="9.6"/>
		<rect x="262" y="329.7" class="st19" width="6.2" height="27.8"/>
		<rect x="269.2" y="347.3" class="st19" width="6.2" height="10.1"/>
	</g>
	<g>
		<g>
			<polygon class="st26" points="403,443.8 493.8,443.8 511.3,461.6 511.3,597 403,597 			"/>
			<rect x="430.8" y="460.2" class="st27" width="52.6" height="2.7"/>
			<rect x="412.9" y="466.9" class="st27" width="88.4" height="2.7"/>
			<rect x="412.9" y="471.7" class="st27" width="88.4" height="2.7"/>
			<rect x="412.9" y="476.4" class="st27" width="88.4" height="2.7"/>
			<rect x="412.9" y="481.1" class="st27" width="88.4" height="2.7"/>
			<rect x="412.9" y="485.8" class="st27" width="88.4" height="2.7"/>
			<rect x="412.9" y="490.5" class="st27" width="88.4" height="2.7"/>
			<rect x="412.9" y="495.3" class="st27" width="88.4" height="2.7"/>
			<rect x="412.9" y="500" class="st27" width="88.4" height="2.7"/>
			<rect x="412.9" y="504.7" class="st27" width="44.2" height="2.7"/>
			<g>
				<path class="st6" d="M489.9,519.3c6.3,0,11.5,5.1,11.5,11.5c0,6.3-5.1,11.5-11.5,11.5c-6.3,0-11.5-5.1-11.5-11.5
					C478.4,524.5,483.5,519.3,489.9,519.3z"/>
				<path class="st14" d="M483.6,540.4c-1.6-1.1-3-2.6-3.9-4.4l10.2-5.2L483.6,540.4z"/>
				<path class="st28" d="M479.7,536c-0.8-1.6-1.3-3.3-1.3-5.2c0-3.7,1.7-6.9,4.4-9l7.1,9L479.7,536z"/>
				<path class="st29" d="M482.8,521.8c1.9-1.5,4.4-2.4,7.1-2.4v11.5L482.8,521.8z"/>
				<path class="st30" d="M489.9,519.3v11.5l8.2-8C496,520.6,493.1,519.3,489.9,519.3z"/>
			</g>
			<g>
				<rect x="412.9" y="544.2" class="st27" width="52.6" height="1.3"/>
				<rect x="412.9" y="516" class="st6" width="9.4" height="28.2"/>
				<rect x="423.7" y="526.7" class="st30" width="9.4" height="17.6"/>
				<rect x="434.5" y="532.6" class="st29" width="9.4" height="11.6"/>
				<rect x="445.4" y="527.2" class="st28" width="9.4" height="17.1"/>
				<rect x="456.2" y="532" class="st14" width="9.4" height="12.2"/>
				<rect x="479.1" y="544.2" class="st27" width="4.7" height="1.3"/>
				<rect x="486" y="544.2" class="st27" width="14" height="1.3"/>
			</g>
			<rect x="412.9" y="549.8" class="st27" width="40.6" height="2.7"/>
			<rect x="412.9" y="554.5" class="st27" width="40.6" height="2.7"/>
			<rect x="412.9" y="559.3" class="st27" width="40.6" height="2.7"/>
			<rect x="412.9" y="564" class="st27" width="40.6" height="2.7"/>
			<rect x="412.9" y="568.7" class="st27" width="40.6" height="2.7"/>
			<rect x="412.9" y="573.4" class="st27" width="40.6" height="2.7"/>
			<rect x="412.9" y="578.1" class="st27" width="40.6" height="2.7"/>
			<rect x="412.9" y="582.9" class="st27" width="20.3" height="2.7"/>
			<rect x="460.8" y="549.8" class="st27" width="40.6" height="2.7"/>
			<rect x="460.8" y="554.5" class="st27" width="40.6" height="2.7"/>
			<rect x="460.8" y="559.3" class="st27" width="40.6" height="2.7"/>
			<rect x="460.8" y="564" class="st27" width="40.6" height="2.7"/>
			<rect x="460.8" y="568.7" class="st27" width="40.6" height="2.7"/>
			<rect x="460.8" y="573.4" class="st27" width="40.6" height="2.7"/>
			<rect x="460.8" y="578.1" class="st27" width="40.6" height="2.7"/>
			<rect x="460.8" y="582.9" class="st27" width="28.6" height="2.7"/>
		</g>
		<polygon class="st31" points="511.3,461.6 493.8,461.6 493.8,443.8 		"/>
	</g>
</g>
</svg>
